<svg width="280" height="145" viewBox="0 0 280 145" fill="none" xmlns="http://www.w3.org/2000/svg">
<g clip-path="url(#clip0_112_334)">
<path d="M220.35 98.728C220.35 98.7716 220.348 98.8065 220.343 98.837C220.341 98.8675 220.335 98.8915 220.328 98.909C220.322 98.9286 220.311 98.9416 220.3 98.9504C220.289 98.9591 220.278 98.9634 220.265 98.9634H219.556V101.254C219.556 101.269 219.551 101.282 219.543 101.293C219.532 101.306 219.517 101.315 219.495 101.322C219.473 101.33 219.443 101.335 219.406 101.339C219.369 101.344 219.324 101.346 219.267 101.346C219.213 101.346 219.165 101.344 219.128 101.339C219.091 101.335 219.061 101.33 219.039 101.322C219.018 101.315 219.003 101.306 218.994 101.293C218.983 101.282 218.979 101.269 218.979 101.254V98.9634H218.271C218.256 98.9634 218.243 98.9591 218.232 98.9504C218.224 98.9416 218.215 98.9286 218.206 98.909C218.2 98.8915 218.193 98.8675 218.191 98.837C218.187 98.8065 218.185 98.7716 218.185 98.728C218.185 98.6845 218.187 98.6474 218.191 98.6169C218.193 98.5864 218.2 98.5602 218.206 98.5428C218.215 98.5232 218.224 98.5101 218.232 98.5036C218.243 98.4948 218.256 98.4905 218.271 98.4905H220.265C220.278 98.4905 220.289 98.4948 220.3 98.5036C220.311 98.5101 220.322 98.5232 220.328 98.5428C220.335 98.5602 220.341 98.5864 220.343 98.6169C220.348 98.6474 220.35 98.6845 220.35 98.728Z" fill="white"/>
<path d="M223.981 101.254C223.981 101.269 223.977 101.282 223.971 101.293C223.962 101.306 223.947 101.315 223.925 101.322C223.905 101.33 223.877 101.335 223.843 101.339C223.806 101.344 223.762 101.346 223.708 101.346C223.656 101.346 223.613 101.344 223.578 101.339C223.541 101.335 223.515 101.33 223.493 101.322C223.474 101.315 223.459 101.306 223.45 101.293C223.441 101.282 223.437 101.269 223.437 101.254V98.9416H223.432L222.612 101.252C222.606 101.272 222.597 101.287 222.584 101.3C222.571 101.311 222.554 101.322 222.53 101.328C222.508 101.337 222.48 101.341 222.445 101.344C222.408 101.346 222.367 101.346 222.317 101.346C222.267 101.346 222.226 101.346 222.191 101.341C222.157 101.337 222.126 101.33 222.105 101.324C222.081 101.315 222.063 101.306 222.05 101.293C222.037 101.282 222.029 101.267 222.024 101.252L221.233 98.9416H221.228V101.254C221.228 101.269 221.224 101.282 221.217 101.293C221.209 101.306 221.193 101.315 221.172 101.322C221.15 101.33 221.122 101.335 221.087 101.339C221.052 101.344 221.009 101.346 220.955 101.346C220.903 101.346 220.859 101.344 220.825 101.339C220.79 101.335 220.762 101.33 220.74 101.322C220.718 101.315 220.703 101.306 220.697 101.293C220.688 101.282 220.684 101.269 220.684 101.254V98.7215C220.684 98.6474 220.703 98.5907 220.742 98.5493C220.783 98.5101 220.835 98.4905 220.901 98.4905H221.276C221.343 98.4905 221.402 98.497 221.449 98.5079C221.497 98.5188 221.538 98.5362 221.573 98.5624C221.61 98.5886 221.638 98.6212 221.662 98.6627C221.684 98.7041 221.705 98.7564 221.723 98.8174L222.335 100.511H222.343L222.977 98.8218C222.996 98.7607 223.018 98.7084 223.04 98.667C223.064 98.6234 223.09 98.5907 223.118 98.5624C223.148 98.5362 223.185 98.5188 223.224 98.5079C223.265 98.497 223.313 98.4905 223.367 98.4905H223.754C223.793 98.4905 223.827 98.4948 223.856 98.5057C223.884 98.5166 223.908 98.5319 223.925 98.5515C223.944 98.5711 223.958 98.5951 223.966 98.6234C223.977 98.6518 223.981 98.6845 223.981 98.7215V101.254Z" fill="white"/>
<path d="M111.704 31.165C123.049 30.5221 137.046 30.4 152.142 30.7705C164.165 31.0669 176.877 31.5795 189.575 33.0898C210.191 35.7053 213.971 39.3672 217.019 43.626C219.689 47.0305 221.478 52.5168 221.419 64.0049C221.328 81.9489 216.389 93.1673 184.109 94.3291C181.405 94.5319 162.521 96.118 146.622 96.0352C135.308 96.2139 122.641 95.981 112.683 95.5625C108.935 95.4038 104.96 95.2144 101.978 95.0449C98.9668 98.9772 94.8988 104.303 93.6926 105.959C91.7075 108.681 89.8983 110.739 87.2688 109.915C85.6982 109.422 85.2445 107.803 85.1555 105.479C85.1086 104.263 85.1217 98.2518 85.137 93.833C80.7144 93.3265 76.196 92.5931 72.7385 91.5166C69.0258 90.394 58.3604 87.1154 56.5706 72.3584C56.115 68.7581 56.0594 65.4713 56.0247 62.5684C55.9097 53.0329 57.7229 47.0863 60.6692 43.0781C60.8372 42.765 63.2137 39.3138 69.0159 36.749C73.6742 34.1728 94.5019 32.1437 111.704 31.165ZM146.468 48.8291C145.36 48.8292 144.537 49.2218 144.003 50.0107C143.47 50.7976 143.202 52.0076 143.202 53.6377V74.4629C143.202 76.0799 143.47 77.2835 144.003 78.0703C144.537 78.8592 145.36 79.2538 146.468 79.2539C147.104 79.2539 147.683 79.0746 148.203 78.7217C148.724 78.3686 149.186 77.839 149.592 77.1328C150.241 77.8672 151.02 78.4233 151.927 78.8047C152.832 79.1838 153.825 79.3759 154.907 79.376C157.639 79.376 160 78.2512 161.988 76.002C163.977 73.7527 164.97 71.039 164.97 67.8613C164.97 64.4918 163.998 61.6819 162.059 59.4326C160.117 57.1857 157.734 56.0615 154.907 56.0615C153.908 56.0616 152.976 56.2177 152.117 56.5293C151.258 56.841 150.471 57.3101 149.755 57.9355V53.6377C149.755 52.0075 149.484 50.7975 148.944 50.0107C148.403 49.2219 147.577 48.8291 146.468 48.8291ZM176.981 56.0303C173.844 56.0303 171.223 57.1489 169.12 59.3828C167.016 61.6189 165.965 64.4086 165.965 67.7539C165.965 71.0841 167.046 73.8547 169.211 76.0625C171.374 78.2703 174.073 79.3759 177.306 79.376C179.955 79.376 182.262 78.8089 184.223 77.6777C186.184 76.5488 187.164 75.2782 187.164 73.8682C187.164 73.1252 186.922 72.5149 186.434 72.042C185.948 71.567 185.318 71.3291 184.548 71.3291C184.194 71.3292 183.265 71.684 181.758 72.3965C180.25 73.107 178.881 73.4629 177.649 73.4629C176.23 73.4628 175.087 73.1184 174.221 72.4277C173.355 71.7369 172.476 70.7732 172.326 69.542H184.405C185.676 69.542 186.536 69.3454 186.983 68.9531C187.427 68.5587 187.651 67.87 187.651 66.8809C187.651 63.847 186.629 61.2786 184.587 59.1797C182.546 57.081 180.009 56.0303 176.981 56.0303ZM137.383 57.7627C136.323 57.7628 135.54 58.1312 135.036 58.8652C134.531 59.5997 134.277 60.7269 134.277 62.248V74.6846C134.277 76.2056 134.532 77.3351 135.044 78.0762C135.554 78.817 136.335 79.1873 137.383 79.1875C138.418 79.1875 139.186 78.8214 139.683 78.0869C140.182 77.3524 140.432 76.2168 140.432 74.6846V62.248C140.432 60.7269 140.182 59.5997 139.683 58.8652C139.186 58.1311 138.418 57.7627 137.383 57.7627ZM129.217 48.8438C128.393 48.8438 127.729 49.0747 127.23 49.5322C126.729 49.9899 126.284 50.8077 125.891 51.9824L119.992 68.3223L113.88 51.7383C113.487 50.6858 113.06 49.94 112.594 49.502C112.128 49.064 111.528 48.8438 110.797 48.8438C109.797 48.8438 108.964 49.1618 108.302 49.7959C107.64 50.43 107.309 51.226 107.309 52.1826C107.309 52.5204 107.341 52.8565 107.41 53.1855C107.478 53.5167 107.571 53.8242 107.693 54.1074L116.7 76.6553C117.078 77.5595 117.515 78.2065 118.009 78.5967C118.504 78.9889 119.135 79.1855 119.906 79.1855C120.732 79.1855 121.407 78.9696 121.934 78.5381C122.461 78.1066 122.921 77.3897 123.314 76.3916L132.037 54.2686C132.185 53.8916 132.298 53.5033 132.371 53.1045C132.445 52.7081 132.485 52.3182 132.485 51.9414C132.485 50.9826 132.192 50.2284 131.613 49.6748C131.029 49.1213 130.232 48.8438 129.217 48.8438ZM80.7161 51.3584C80.0609 50.5738 79.0951 50.395 78.0754 50.9268C78.0711 50.9268 78.0603 50.9306 78.0559 50.9307C77.0926 51.4777 76.1917 52.2104 75.3499 53.1367C75.3456 53.1474 75.3416 53.1476 75.3352 53.1562C74.704 53.9168 74.3459 54.6643 74.259 55.3965C74.2417 55.4836 74.233 55.5908 74.2395 55.7236C74.2352 56.0439 74.2831 56.3621 74.385 56.6758L74.4192 56.7002C74.7359 57.8292 75.5303 59.7167 77.2551 62.8574C78.3746 64.8997 79.5184 66.5981 80.6575 68.0322C81.2519 68.7884 81.9291 69.5683 82.7122 70.3594C82.7382 70.3855 82.7643 70.4116 82.7903 70.4355C82.8163 70.4639 82.8402 70.4905 82.8684 70.5166C82.8943 70.5427 82.9206 70.5687 82.9465 70.5947C82.9725 70.6208 82.9977 70.6477 83.0237 70.6738C83.8112 71.4607 84.5863 72.1382 85.3391 72.7354C86.7667 73.8796 88.4566 75.0285 90.4895 76.1553C93.6181 77.888 95.4953 78.6857 96.6213 79.0039L96.6448 79.0391C96.9572 79.1415 97.2743 79.1867 97.5911 79.1846C97.7233 79.1889 97.8295 79.1825 97.9163 79.165C98.6474 79.0757 99.3917 78.7163 100.147 78.082C100.158 78.0777 100.158 78.0708 100.166 78.0664C101.088 77.2229 101.817 76.3161 102.362 75.3506C102.362 75.3441 102.368 75.3335 102.368 75.3291C102.898 74.307 102.717 73.3372 101.939 72.6768C101.934 72.6724 100.301 71.3056 99.5002 70.7148C98.7475 70.1591 97.5476 69.4137 96.8772 69.0322C95.6752 68.3587 94.4445 68.782 93.9368 69.4424L92.8831 70.7754C92.3465 71.4416 91.3574 71.3622 91.3362 71.3604C84.0221 69.4855 82.0438 62.0727 82.0266 62.0078C82.0266 62.0078 81.9396 60.9988 82.6077 60.4561L83.9358 59.3945C84.5953 58.8867 85.0134 57.65 84.343 56.4404C83.9654 55.7669 83.2235 54.5618 82.6682 53.8057C82.0863 53.0089 80.7404 51.3843 80.7161 51.3584ZM200.305 56.252C199.535 56.252 198.771 56.4369 198.014 56.8115C197.255 57.1842 196.538 57.7383 195.862 58.4727C195.471 57.7666 195.017 57.2391 194.503 56.8926C193.989 56.5461 193.4 56.374 192.737 56.374C191.628 56.3742 190.808 56.7641 190.273 57.5439C189.739 58.3264 189.472 59.5255 189.472 61.1426V74.3682C189.472 75.9853 189.739 77.1888 190.273 77.9756C190.808 78.7643 191.628 79.1571 192.737 79.1572C193.847 79.1572 194.672 78.7644 195.212 77.9756C195.752 77.1888 196.024 75.9854 196.024 74.3682V67.5205C196.024 66.2586 196.159 65.384 196.43 64.9023C196.701 64.4208 197.248 63.9823 198.074 63.5879C198.506 63.3831 199.155 63.1262 200.021 62.8125C202.429 61.9299 203.633 60.829 203.633 59.5127C203.633 58.6301 203.303 57.8648 202.648 57.2197C201.993 56.5748 201.212 56.252 200.305 56.252ZM153.955 61.6689C155.337 61.669 156.466 62.2313 157.34 63.3535C158.217 64.4759 158.655 65.9388 158.655 67.7412C158.655 69.5153 158.212 70.9563 157.329 72.0635C156.449 73.1707 155.322 73.7266 153.955 73.7266C152.571 73.7265 151.443 73.179 150.569 72.085C149.692 70.993 149.256 69.5435 149.256 67.7412C149.256 65.9236 149.692 64.4587 150.569 63.3428C151.443 62.227 152.571 61.669 153.955 61.6689ZM177.029 61.1592C178.263 61.1593 179.326 61.5715 180.218 62.3887C181.112 63.2082 181.602 64.4789 181.691 65.6992H172.065C172.319 64.3894 172.882 63.0962 173.761 62.3203C174.637 61.5468 175.809 61.1592 177.029 61.1592ZM88.8479 49.0059C88.4577 49.0061 88.1374 49.3236 88.135 49.7178C88.1329 50.1144 88.4491 50.437 88.844 50.4414C92.6126 50.4676 95.804 51.7366 98.3293 54.2061C100.885 56.7147 102.143 60.0672 102.178 64.459C102.18 64.8532 102.499 65.1708 102.892 65.1709H102.899C103.293 65.1687 103.61 64.8439 103.606 64.4473C103.571 59.7201 102.13 55.928 99.3274 53.1797C96.5286 50.44 93.0051 49.0342 88.8547 49.0059H88.8479ZM90.1604 52.7305C89.7677 52.7021 89.4249 52.9988 89.3967 53.3955C89.3665 53.7898 89.6634 54.1336 90.0559 54.1621C92.7657 54.3626 94.8034 55.2525 96.2874 56.8828C97.7777 58.5174 98.4765 60.505 98.4202 62.959C98.4115 63.3556 98.7236 63.6845 99.1184 63.6934H99.136C99.522 63.6933 99.841 63.3822 99.8499 62.9922C99.9128 60.1873 99.0688 57.8071 97.342 55.9131C95.6237 54.0256 93.2086 52.955 90.1604 52.7305ZM91.2317 56.5859C90.8369 56.5621 90.5024 56.8692 90.4807 57.2637C90.4592 57.6601 90.7609 57.9975 91.1555 58.0195C93.49 58.146 94.6338 59.3406 94.7532 61.7773C94.7727 62.1609 95.0895 62.46 95.467 62.46H95.5042C95.8967 62.4401 96.2004 62.1016 96.1809 61.7051C96.0246 58.5231 94.3124 56.7516 91.2317 56.5859ZM137.527 48.8281C136.581 48.8283 135.768 49.1665 135.093 49.8398C134.416 50.5132 134.078 51.3192 134.077 52.2627C134.077 53.2173 134.41 54.0262 135.073 54.6865C135.737 55.3489 136.555 55.6805 137.527 55.6807C138.475 55.6807 139.277 55.349 139.935 54.6865C140.594 54.0261 140.922 53.2173 140.922 52.2627C140.922 51.3194 140.59 50.5131 139.927 49.8398C139.263 49.1665 138.462 48.8281 137.527 48.8281Z" fill="white"/>
<path d="M122.152 104.145C121.429 104.145 120.87 104.417 120.475 104.962C120.078 105.507 119.88 106.268 119.88 107.242C119.88 109.269 120.638 110.283 122.152 110.283C122.788 110.283 123.558 110.123 124.46 109.803V111.42C123.718 111.732 122.89 111.887 121.972 111.887C120.655 111.887 119.648 111.486 118.952 110.684C118.255 109.882 117.906 108.731 117.906 107.229C117.906 106.283 118.077 105.457 118.42 104.744C118.763 104.034 119.253 103.489 119.896 103.11C120.538 102.73 121.288 102.541 122.152 102.541C123.031 102.541 123.914 102.754 124.801 103.182L124.183 104.749C123.844 104.587 123.504 104.446 123.161 104.326C122.818 104.206 122.482 104.145 122.152 104.145Z" fill="white"/>
<path d="M132.526 108.279C132.526 109.41 132.229 110.295 131.635 110.934C131.04 111.572 130.213 111.893 129.153 111.893C128.489 111.893 127.903 111.747 127.395 111.452C126.887 111.16 126.497 110.742 126.226 110.195C125.952 109.648 125.816 109.009 125.816 108.279C125.816 107.143 126.111 106.261 126.701 105.631C127.291 104.999 128.122 104.685 129.189 104.685C129.853 104.685 130.441 104.831 130.949 105.121C131.454 105.411 131.845 105.827 132.118 106.37C132.39 106.912 132.526 107.549 132.526 108.279ZM127.742 108.279C127.742 108.968 127.853 109.486 128.079 109.839C128.304 110.193 128.671 110.369 129.179 110.369C129.682 110.369 130.042 110.193 130.263 109.844C130.485 109.493 130.595 108.972 130.595 108.279C130.595 107.59 130.485 107.076 130.261 106.731C130.038 106.387 129.673 106.215 129.166 106.215C128.662 106.215 128.298 106.385 128.076 106.727C127.853 107.069 127.742 107.586 127.742 108.279Z" fill="white"/>
<path d="M140.474 111.764H138.587V107.703C138.587 107.202 138.498 106.825 138.32 106.574C138.142 106.323 137.86 106.199 137.471 106.199C136.944 106.199 136.562 106.376 136.326 106.729C136.092 107.084 135.974 107.673 135.974 108.492V111.764H134.087V104.811H135.528L135.781 105.7H135.888C136.098 105.364 136.387 105.112 136.758 104.939C137.127 104.767 137.547 104.68 138.016 104.68C138.821 104.68 139.433 104.9 139.849 105.336C140.266 105.774 140.474 106.406 140.474 107.23V111.764Z" fill="white"/>
<path d="M148.806 111.764H146.918V107.703C146.918 107.202 146.829 106.825 146.651 106.574C146.473 106.323 146.191 106.199 145.803 106.199C145.276 106.199 144.894 106.376 144.657 106.729C144.423 107.084 144.306 107.673 144.306 108.492V111.764H142.418V104.811H143.859L144.113 105.7H144.219C144.43 105.364 144.72 105.112 145.089 104.939C145.458 104.767 145.879 104.68 146.348 104.68C147.153 104.68 147.764 104.9 148.181 105.336C148.597 105.774 148.806 106.406 148.806 107.23V111.764Z" fill="white"/>
<path d="M153.881 111.887C152.766 111.887 151.896 111.577 151.269 110.96C150.642 110.344 150.328 109.467 150.328 108.336C150.328 107.17 150.618 106.27 151.198 105.634C151.777 104.997 152.58 104.679 153.604 104.679C154.58 104.679 155.342 104.96 155.886 105.52C156.431 106.078 156.704 106.852 156.704 107.839V108.759H152.241C152.261 109.297 152.421 109.718 152.719 110.021C153.016 110.324 153.432 110.474 153.968 110.474C154.385 110.474 154.78 110.431 155.151 110.344C155.522 110.259 155.91 110.119 156.314 109.927V111.396C155.984 111.562 155.63 111.684 155.255 111.765C154.879 111.845 154.422 111.887 153.881 111.887ZM153.615 106.028C153.215 106.028 152.901 106.157 152.675 106.412C152.447 106.667 152.317 107.028 152.285 107.497H154.934C154.925 107.028 154.804 106.667 154.569 106.412C154.333 106.157 154.016 106.028 153.615 106.028Z" fill="white"/>
<path d="M161.049 111.887C158.894 111.887 157.818 110.699 157.818 108.323C157.818 107.142 158.111 106.239 158.697 105.616C159.283 104.991 160.122 104.679 161.216 104.679C162.017 104.679 162.735 104.838 163.37 105.152L162.813 106.619C162.516 106.499 162.24 106.401 161.984 106.324C161.728 106.248 161.472 106.209 161.216 106.209C160.233 106.209 159.743 106.911 159.743 108.31C159.743 109.67 160.233 110.35 161.216 110.35C161.578 110.35 161.915 110.302 162.225 110.204C162.535 110.108 162.843 109.956 163.153 109.749V111.37C162.847 111.566 162.539 111.699 162.229 111.776C161.917 111.85 161.524 111.887 161.049 111.887Z" fill="white"/>
<path d="M167.672 110.378C168.002 110.378 168.399 110.306 168.861 110.16V111.573C168.39 111.784 167.813 111.889 167.128 111.889C166.373 111.889 165.821 111.697 165.479 111.313C165.134 110.93 164.96 110.356 164.96 109.589V106.237H164.058V105.435L165.097 104.801L165.641 103.334H166.85V104.814H168.787V106.237H166.85V109.589C166.85 109.857 166.924 110.058 167.076 110.186C167.225 110.315 167.425 110.378 167.672 110.378Z" fill="white"/>
<path d="M169.993 110.875C169.993 110.526 170.086 110.262 170.271 110.086C170.457 109.907 170.729 109.817 171.082 109.817C171.425 109.817 171.69 109.909 171.879 110.092C172.065 110.273 172.161 110.535 172.161 110.875C172.161 111.201 172.065 111.461 171.874 111.648C171.685 111.838 171.421 111.932 171.082 111.932C170.735 111.932 170.468 111.84 170.277 111.655C170.089 111.47 169.993 111.21 169.993 110.875Z" fill="white"/>
<path d="M179.204 111.764H177.316V102.673H182.504V104.253H179.204V106.596H182.274V108.17H179.204V111.764Z" fill="white"/>
<mask id="mask0_112_334" style="mask-type:luminance" maskUnits="userSpaceOnUse" x="-897" y="-29513" width="1634" height="31387">
<path d="M-896.527 1873.21H736.304V-29512.5H-896.527V1873.21Z" fill="white"/>
</mask>
<g mask="url(#mask0_112_334)">
<path d="M187.987 104.681C188.243 104.681 188.456 104.701 188.625 104.738L188.482 106.516C188.33 106.475 188.143 106.453 187.924 106.453C187.323 106.453 186.852 106.608 186.516 106.919C186.18 107.231 186.013 107.665 186.013 108.225V111.765H184.125V104.812H185.555L185.832 105.98H185.926C186.141 105.592 186.429 105.276 186.796 105.039C187.16 104.801 187.557 104.681 187.987 104.681Z" fill="white"/>
<path d="M193.013 111.888C191.898 111.888 191.028 111.578 190.401 110.961C189.774 110.345 189.459 109.468 189.459 108.337C189.459 107.171 189.75 106.271 190.329 105.635C190.908 104.998 191.711 104.68 192.735 104.68C193.711 104.68 194.473 104.961 195.017 105.521C195.562 106.079 195.835 106.853 195.835 107.84V108.76H191.373C191.392 109.298 191.553 109.719 191.85 110.022C192.147 110.325 192.564 110.475 193.1 110.475C193.516 110.475 193.911 110.432 194.282 110.345C194.653 110.26 195.041 110.12 195.445 109.928V111.397C195.115 111.563 194.761 111.685 194.386 111.766C194.011 111.846 193.553 111.888 193.013 111.888ZM192.746 106.029C192.347 106.029 192.032 106.158 191.806 106.413C191.579 106.668 191.449 107.029 191.416 107.498H194.065C194.056 107.029 193.935 106.668 193.701 106.413C193.464 106.158 193.147 106.029 192.746 106.029Z" fill="white"/>
<path d="M200.502 111.888C199.387 111.888 198.517 111.578 197.89 110.961C197.263 110.345 196.948 109.468 196.948 108.337C196.948 107.171 197.239 106.271 197.818 105.635C198.398 104.998 199.201 104.68 200.225 104.68C201.201 104.68 201.962 104.961 202.507 105.521C203.052 106.079 203.325 106.853 203.325 107.84V108.76H198.862C198.882 109.298 199.042 109.719 199.339 110.022C199.637 110.325 200.053 110.475 200.589 110.475C201.006 110.475 201.4 110.432 201.771 110.345C202.142 110.26 202.531 110.12 202.934 109.928V111.397C202.605 111.563 202.251 111.685 201.876 111.766C201.5 111.846 201.043 111.888 200.502 111.888ZM200.235 106.029C199.836 106.029 199.522 106.158 199.296 106.413C199.068 106.668 198.938 107.029 198.905 107.498H201.555C201.546 107.029 201.424 106.668 201.19 106.413C200.954 106.158 200.637 106.029 200.235 106.029Z" fill="white"/>
</g>
<path d="M204.862 111.763H206.752V102.09H204.862V111.763Z" fill="white"/>
<mask id="mask1_112_334" style="mask-type:luminance" maskUnits="userSpaceOnUse" x="-897" y="-29513" width="1634" height="31387">
<path d="M-896.527 1873.21H736.304V-29512.5H-896.527V1873.21Z" fill="white"/>
</mask>
<g mask="url(#mask1_112_334)">
<path d="M207.739 104.812H209.806L211.112 108.724C211.223 109.064 211.299 109.465 211.34 109.929H211.379C211.423 109.502 211.512 109.101 211.644 108.724L212.926 104.812H214.95L212.022 112.654C211.755 113.377 211.371 113.922 210.874 114.282C210.377 114.644 209.796 114.822 209.132 114.822C208.806 114.822 208.485 114.787 208.173 114.718V113.212C208.398 113.266 208.646 113.292 208.915 113.292C209.249 113.292 209.542 113.19 209.791 112.985C210.041 112.78 210.236 112.471 210.375 112.056L210.488 111.714L207.739 104.812Z" fill="white"/>
<path d="M215.674 110.875C215.674 110.526 215.767 110.262 215.952 110.086C216.138 109.907 216.41 109.817 216.763 109.817C217.106 109.817 217.371 109.909 217.559 110.092C217.746 110.273 217.841 110.535 217.841 110.875C217.841 111.201 217.746 111.461 217.555 111.648C217.366 111.838 217.102 111.932 216.763 111.932C216.416 111.932 216.149 111.84 215.958 111.655C215.77 111.47 215.674 111.21 215.674 110.875Z" fill="white"/>
</g>
</g>
<defs>
<clipPath id="clip0_112_334">
<rect width="169.09" height="85" fill="white" transform="translate(55.4548 30)"/>
</clipPath>
</defs>
</svg>
