<svg width="280" height="145" viewBox="0 0 280 145" fill="none" xmlns="http://www.w3.org/2000/svg">
<path d="M40 54.539H47.832V83.1933H62.3226V90.4604H40V54.539ZM65.7789 66.125H73.2937V90.4445H65.7789V66.125ZM69.5363 54.0291C70.3986 54.0291 71.2415 54.2861 71.9585 54.7677C72.6755 55.2492 73.2343 55.9337 73.5643 56.7345C73.8943 57.5353 73.9806 58.4165 73.8124 59.2667C73.6442 60.1168 73.2289 60.8977 72.6192 61.5106C72.0094 62.1235 71.2326 62.5409 70.3869 62.71C69.5411 62.8791 68.6645 62.7924 67.8678 62.4606C67.0712 62.1289 66.3902 61.5672 65.9112 60.8465C65.4321 60.1258 65.1764 59.2785 65.1764 58.4117C65.1764 57.2493 65.6357 56.1346 66.4534 55.3127C67.271 54.4908 68.38 54.0291 69.5363 54.0291ZM104.748 54.539H112.263V76.0058L120.793 66.0932H130.004L120.143 77.3604L129.798 90.4604H120.349L112.358 78.4282H112.263V90.4604H104.748V54.539ZM77.4634 66.125H84.6294V69.4558H84.7246C85.4474 68.2152 86.4908 67.1942 87.744 66.5012C88.9972 65.8082 90.4136 65.469 91.8431 65.5194C99.4689 65.5194 100.864 70.5554 100.864 77.1054V90.4604H93.4126V78.6194C93.4126 75.7986 93.4126 72.2447 89.4967 72.2447C85.5807 72.2447 84.9782 75.3205 84.9782 78.4919V90.5242H77.4634V66.125Z" fill="white"/>
<path d="M145.842 75.4483C145.858 74.8351 145.749 74.2252 145.522 73.6556C145.296 73.086 144.956 72.5687 144.525 72.1349C144.094 71.7012 143.579 71.3602 143.012 71.1325C142.446 70.9049 141.839 70.7954 141.229 70.8107C139.915 70.7272 138.621 71.1669 137.627 72.0348C136.633 72.9026 136.019 74.1289 135.918 75.4483H145.842ZM152.184 86.2375C150.93 87.7484 149.358 88.9609 147.581 89.7876C145.805 90.6143 143.868 91.0347 141.911 91.0185C134.396 91.0185 128.371 85.9825 128.371 78.1575C128.371 70.3326 134.396 65.3125 141.911 65.3125C148.934 65.3125 153.341 70.3485 153.341 78.1575V80.5321H135.902C136.109 81.883 136.797 83.1124 137.838 83.9918C138.879 84.8711 140.202 85.3407 141.562 85.3131C142.633 85.3116 143.686 85.0375 144.623 84.5164C145.56 83.9953 146.35 83.2441 146.92 82.333L152.184 86.2375ZM169.021 71.99C167.794 71.952 166.583 72.2829 165.545 72.9406C164.506 73.5982 163.686 74.5526 163.19 75.6815C162.693 76.8104 162.544 78.0625 162.76 79.2774C162.976 80.4922 163.548 81.6147 164.402 82.5009C165.257 83.3871 166.355 83.9968 167.556 84.252C168.757 84.5071 170.007 84.396 171.145 83.9329C172.283 83.4698 173.258 82.6759 173.944 81.6527C174.631 80.6294 174.998 79.4236 174.998 78.1894C175.065 77.3705 174.957 76.5466 174.68 75.7734C174.403 75.0003 173.964 74.296 173.393 73.7082C172.822 73.1204 172.131 72.6628 171.369 72.3664C170.607 72.0699 169.79 71.9416 168.974 71.99M181.974 90.4448H174.998V87.2574C174.127 88.4258 173.001 89.378 171.706 90.041C170.412 90.704 168.983 91.0602 167.531 91.0822C160.301 91.0822 155.545 85.8391 155.545 78.4285C155.545 71.6235 159.762 65.3763 166.643 65.3763C168.09 65.2485 169.546 65.4712 170.889 66.0258C172.233 66.5804 173.424 67.4507 174.364 68.5636H174.459V54.5393H181.974V90.4448Z" fill="white"/>
<path d="M236.195 47.0012H193.008C192.518 46.9949 192.031 47.0868 191.576 47.2715C191.122 47.4563 190.708 47.7302 190.36 48.0774C190.011 48.4245 189.735 48.8379 189.548 49.2934C189.36 49.7489 189.264 50.2374 189.267 50.7304V94.3174C189.271 94.8064 189.371 95.2897 189.561 95.7397C189.752 96.1897 190.029 96.5974 190.377 96.9394C190.724 97.2815 191.136 97.5512 191.587 97.733C192.039 97.9147 192.522 98.0051 193.008 97.9988H236.195C236.686 98.0115 237.175 97.926 237.633 97.7472C238.091 97.5685 238.509 97.3001 238.863 96.9576C239.217 96.6151 239.5 96.2054 239.695 95.7522C239.89 95.2989 239.994 94.8112 240 94.3174V50.7304C240 50.2325 239.901 49.7397 239.709 49.2809C239.516 48.8221 239.235 48.4067 238.88 48.0591C238.525 47.7115 238.105 47.4389 237.644 47.2572C237.183 47.0755 236.69 46.9885 236.195 47.0012ZM204.296 90.4607H196.782V66.1253H204.296V90.4607ZM200.539 62.8264C199.677 62.8264 198.834 62.5694 198.117 62.0878C197.4 61.6062 196.841 60.9218 196.511 60.1209C196.181 59.3201 196.095 58.4389 196.263 57.5888C196.431 56.7387 196.846 55.9577 197.456 55.3448C198.066 54.7319 198.843 54.3145 199.688 54.1454C200.534 53.9763 201.411 54.0631 202.207 54.3948C203.004 54.7265 203.685 55.2882 204.164 56.009C204.643 56.7297 204.899 57.577 204.899 58.4438C204.899 59.6061 204.439 60.7209 203.622 61.5428C202.804 62.3647 201.695 62.8264 200.539 62.8264ZM232.453 90.4607H224.938V78.6356C224.938 75.8148 224.938 72.2609 221.038 72.2609C217.138 72.2609 216.52 75.3367 216.52 78.5081V90.5404H209.005V66.1253H216.219V69.472H216.314C217.039 68.2343 218.083 67.2166 219.336 66.5265C220.589 65.8363 222.004 65.4995 223.432 65.5516C231.042 65.5516 232.453 70.5876 232.453 77.1376V90.4607Z" fill="white"/>
</svg>
