<svg width="280" height="145" viewBox="0 0 280 145" fill="none" xmlns="http://www.w3.org/2000/svg">
<g clip-path="url(#clip0_73_227)">
<path d="M78.2204 64.1823C81.9832 66.8893 86.5928 68.4821 91.5714 68.4821V58.8403C90.6292 58.8405 89.6894 58.7416 88.7676 58.545V66.1345C83.7894 66.1345 79.1804 64.5417 75.4166 61.8349V81.511C75.4166 91.354 67.4882 99.3327 57.7086 99.3327C54.0596 99.3327 50.668 98.2224 47.8506 96.3183C51.0662 99.6273 55.5506 101.68 60.5118 101.68C70.292 101.68 78.2208 93.7013 78.2208 83.8579V64.1823H78.2204ZM81.6792 54.4549C79.7562 52.3405 78.4936 49.6081 78.2204 46.5873V45.3472H75.5634C76.2322 49.1866 78.5134 52.4668 81.6792 54.4549ZM54.0362 88.7651C52.9618 87.3474 52.3812 85.613 52.3838 83.8297C52.3838 79.3279 56.0102 75.6778 60.4842 75.6778C61.318 75.6776 62.1468 75.8061 62.9414 76.0598V66.2026C62.0128 66.0745 61.0756 66.0201 60.1388 66.0401V73.7125C59.3436 73.4587 58.5144 73.3298 57.6804 73.3306C53.2064 73.3306 49.5802 76.9804 49.5802 81.4828C49.5802 84.6663 51.3928 87.4225 54.0362 88.7651Z" fill="#4E4E4E"/>
<path d="M75.4167 61.8347C79.1805 64.5415 83.7895 66.1343 88.7677 66.1343V58.5448C85.9889 57.9491 83.5289 56.4877 81.6793 54.4549C78.5133 52.4666 76.2323 49.1864 75.5635 45.3472H68.5843V83.8575C68.5685 88.347 64.9483 91.9823 60.4839 91.9823C57.8531 91.9823 55.5159 90.7202 54.0357 88.7651C51.3925 87.4225 49.5799 84.6661 49.5799 81.483C49.5799 76.981 53.2061 73.3309 57.6801 73.3309C58.5373 73.3309 59.3635 73.4652 60.1385 73.7127V66.0403C50.5307 66.24 42.8037 74.1408 42.8037 83.8577C42.8037 88.7083 44.7279 93.1056 47.8509 96.3185C50.6683 98.2224 54.0599 99.3329 57.7089 99.3329C67.4887 99.3329 75.4169 91.3538 75.4169 81.511L75.4167 61.8347Z" fill="white"/>
<path d="M88.7676 58.5448V56.4927C86.2618 56.4965 83.8052 55.7903 81.6792 54.4547C83.5612 56.5284 86.0394 57.9582 88.7676 58.5448ZM75.5634 45.3472C75.4996 44.9802 75.4506 44.6109 75.4166 44.2401V43H65.7802V81.5108C65.7648 85.9997 62.1448 89.6349 57.68 89.6349C56.3692 89.6349 55.1316 89.3218 54.0356 88.7653C55.5158 90.7202 57.853 91.9821 60.4838 91.9821C64.9478 91.9821 68.5686 88.3472 68.5842 83.8577V45.3472H75.5634ZM60.1388 66.0402V63.8556C59.3336 63.7448 58.5218 63.6893 57.709 63.6897C47.9284 63.6897 40 71.6686 40 81.5108C40 87.6813 43.116 93.1193 47.851 96.3181C44.728 93.1054 42.8038 88.7079 42.8038 83.8575C42.8038 74.1408 50.5306 66.24 60.1388 66.0402Z" fill="#4E4E4E"/>
<path d="M200.425 91.2642C207.423 91.2642 213.096 85.598 213.096 78.6091C213.096 71.6203 207.423 65.9531 200.425 65.9531H198.516C205.514 65.9531 211.187 71.6201 211.187 78.6091C211.187 85.598 205.514 91.2642 198.516 91.2642H200.425Z" fill="#4E4E4E"/>
<path d="M198.343 65.9531H196.434C189.437 65.9531 183.763 71.6201 183.763 78.6091C183.763 85.598 189.437 91.2642 196.434 91.2642H198.343C191.344 91.2642 185.671 85.598 185.671 78.6091C185.671 71.6203 191.344 65.9531 198.343 65.9531Z" fill="#4E4E4E"/>
<path d="M144.19 60.2332V74.6204L151.478 67.3397H160.33L151.13 76.3554L161.372 91.264H153.562L146.446 81.035L144.19 83.1171V91.0908H136.899V60.2332H144.19ZM222.816 60.2332V74.6204L230.106 67.3397H238.958L229.759 76.3554L240 91.264H232.189L225.072 81.035L222.816 83.1171V91.0908H215.525V60.2332H222.816ZM198.516 65.9531C205.513 65.9531 211.187 71.6204 211.187 78.6091C211.187 85.598 205.513 91.2642 198.516 91.2642H198.343C191.345 91.2642 185.672 85.598 185.672 78.6091C185.672 71.6202 191.345 65.9531 198.343 65.9531H198.516ZM125.097 60.2332L123.014 66.8211H116.94V91.091H109.475V66.6479H102.012V60.2332H125.097ZM186.193 60.2332L184.11 66.8211H178.036V91.091H170.571V66.6479H163.109V60.2332H186.193ZM133.774 70.115V91.091H126.487V70.115H133.774ZM198.431 72.4557C195.027 72.4557 192.267 75.2095 192.267 78.6091C192.267 82.0087 195.027 84.7635 198.431 84.7641C201.832 84.7641 204.591 82.0087 204.591 78.6091C204.591 75.2095 201.832 72.4557 198.431 72.4557ZM130.129 60.2332C132.143 60.2332 133.774 61.8634 133.774 63.8734C133.774 65.8837 132.144 67.5139 130.129 67.5139C128.116 67.5129 126.487 65.8837 126.487 63.8734C126.487 61.8634 128.116 60.2332 130.129 60.2332Z" fill="white"/>
</g>
<defs>
<clipPath id="clip0_73_227">
<rect width="200" height="59" fill="white" transform="translate(40 43)"/>
</clipPath>
</defs>
</svg>
