<svg width="280" height="145" viewBox="0 0 280 145" fill="none" xmlns="http://www.w3.org/2000/svg">
<path d="M154.54 58.345C154.554 58.345 154.573 58.345 154.592 58.345C155.088 58.345 155.549 58.4993 155.927 58.7653L155.92 58.7606C156.195 59.0005 156.38 59.3377 156.426 59.7177V59.7248C156.473 60.0146 156.499 60.3471 156.499 60.6867C156.499 60.8411 156.494 60.9931 156.483 61.1451V61.1237C155.948 66.7501 153.63 80.3945 152.452 86.693C151.953 89.3601 150.973 90.2531 150.023 90.3386C147.959 90.531 146.391 88.9753 144.391 87.6643C141.261 85.61 139.492 84.3322 136.454 82.3301C132.942 80.0192 135.219 78.7438 137.219 76.6681C137.744 76.1218 146.842 67.845 147.021 67.0945C147.03 67.0493 147.035 66.9995 147.035 66.9472C147.035 66.762 146.966 66.5933 146.854 66.4651C146.731 66.3843 146.576 66.3392 146.415 66.3392C146.308 66.3392 146.206 66.3606 146.111 66.3962L146.116 66.3938C145.802 66.4651 140.802 69.7695 131.115 76.3071C130.058 77.1407 128.724 77.6679 127.27 77.7297H127.256C125.197 77.4803 123.328 77.0219 121.553 76.3688L121.729 76.4258C119.501 75.6991 117.732 75.3167 117.884 74.0864C117.965 73.4468 118.847 72.7921 120.53 72.1223C130.897 67.6051 137.811 64.6276 141.271 63.19C145.087 61.1641 149.512 59.4968 154.165 58.4162L154.537 58.3426L154.54 58.345ZM139.834 36.9343C120.117 36.9818 104.149 52.9774 104.149 72.7018C104.149 92.4547 120.162 108.469 139.917 108.469C159.672 108.469 175.684 92.4571 175.684 72.7018C175.684 52.9774 159.717 36.9818 140.005 36.9343H140C139.945 36.9343 139.889 36.9343 139.834 36.9343Z" fill="white"/>
</svg>
