<svg width="280" height="145" viewBox="0 0 280 145" fill="none" xmlns="http://www.w3.org/2000/svg">
<path fill-rule="evenodd" clip-rule="evenodd" d="M33.6425 38.819C38.5715 38.4185 46.379 38 57.5 38C68.621 38 76.4285 38.4185 81.3575 38.819C86.6555 39.2495 90.752 43.3445 91.1825 48.644C91.583 53.57 92 61.3775 92 72.5C92 83.6225 91.583 91.4285 91.1825 96.3575C90.752 101.655 86.6555 105.752 81.3575 106.183C76.4285 106.583 68.621 107 57.5 107C46.379 107 38.5715 106.583 33.6425 106.183C28.3445 105.752 24.248 101.655 23.8175 96.3575C23.42 91.4285 23 83.621 23 72.5C23 61.379 23.4185 53.5715 23.819 48.6425C24.2495 43.3445 28.3445 39.248 33.644 38.8175M29.2625 58.25C29.0806 62.9978 28.9931 67.7487 29 72.5C29 83.471 29.4125 91.115 29.798 95.87C29.9915 98.24 31.7615 100.01 34.1285 100.202C38.885 100.587 46.529 101 57.5 101C68.471 101 76.115 100.587 80.87 100.202C83.24 100.008 85.01 98.2385 85.202 95.8715C85.5875 91.115 86 83.471 86 72.5C86 66.905 85.8935 62.174 85.736 58.25H29.2625ZM32.375 49.25C32.375 47.801 33.551 46.625 35 46.625H38C38.6962 46.625 39.3639 46.9016 39.8562 47.3938C40.3484 47.8861 40.625 48.5538 40.625 49.25C40.625 49.9462 40.3484 50.6139 39.8562 51.1062C39.3639 51.5984 38.6962 51.875 38 51.875H35C34.3038 51.875 33.6361 51.5984 33.1438 51.1062C32.6516 50.6139 32.375 49.9462 32.375 49.25ZM47 46.625C46.3038 46.625 45.6361 46.9016 45.1438 47.3938C44.6516 47.8861 44.375 48.5538 44.375 49.25C44.375 49.9462 44.6516 50.6139 45.1438 51.1062C45.6361 51.5984 46.3038 51.875 47 51.875H50C50.6962 51.875 51.3639 51.5984 51.8562 51.1062C52.3484 50.6139 52.625 49.9462 52.625 49.25C52.625 48.5538 52.3484 47.8861 51.8562 47.3938C51.3639 46.9016 50.6962 46.625 50 46.625H47Z" fill="white"/>
<path d="M144.188 48.9453L136.922 77.5H130.027L126.16 62.5C126.082 62.2135 125.978 61.7773 125.848 61.1914C125.717 60.6055 125.581 59.9674 125.438 59.2773C125.294 58.5742 125.164 57.9167 125.047 57.3047C124.943 56.6797 124.871 56.1849 124.832 55.8203C124.793 56.1849 124.715 56.6732 124.598 57.2852C124.493 57.8971 124.37 58.5482 124.227 59.2383C124.096 59.9284 123.966 60.5729 123.836 61.1719C123.706 61.7708 123.602 62.2266 123.523 62.5391L119.676 77.5H112.801L105.516 48.9453H111.473L115.125 64.5312C115.229 65 115.346 65.5599 115.477 66.2109C115.62 66.862 115.757 67.5456 115.887 68.2617C116.03 68.9648 116.154 69.6484 116.258 70.3125C116.375 70.9635 116.46 71.5299 116.512 72.0117C116.577 71.5169 116.661 70.944 116.766 70.293C116.87 69.6289 116.98 68.9583 117.098 68.2812C117.228 67.5911 117.358 66.9531 117.488 66.3672C117.618 65.7812 117.736 65.306 117.84 64.9414L122 48.9453H127.723L131.883 64.9414C131.974 65.293 132.078 65.7682 132.195 66.3672C132.326 66.9531 132.456 67.5911 132.586 68.2812C132.716 68.9714 132.833 69.6484 132.938 70.3125C133.055 70.9635 133.139 71.5299 133.191 72.0117C133.283 71.3607 133.406 70.5729 133.562 69.6484C133.732 68.7109 133.908 67.7799 134.09 66.8555C134.285 65.931 134.454 65.1562 134.598 64.5312L138.23 48.9453H144.188ZM164.227 77.5H147.781V48.9453H164.227V53.9062H153.836V60.1758H163.504V65.1367H153.836V72.5H164.227V77.5ZM170.203 48.9453H179.09C182.892 48.9453 185.77 49.4792 187.723 50.5469C189.676 51.6146 190.652 53.4896 190.652 56.1719C190.652 57.2526 190.477 58.2292 190.125 59.1016C189.786 59.974 189.292 60.6901 188.641 61.25C187.99 61.8099 187.195 62.1745 186.258 62.3438V62.5391C187.208 62.7344 188.068 63.0729 188.836 63.5547C189.604 64.0234 190.216 64.7135 190.672 65.625C191.141 66.5234 191.375 67.7214 191.375 69.2188C191.375 70.9505 190.952 72.4349 190.105 73.6719C189.259 74.9089 188.048 75.8594 186.473 76.5234C184.91 77.1745 183.048 77.5 180.887 77.5H170.203V48.9453ZM176.258 60.2539H179.773C181.531 60.2539 182.749 59.9805 183.426 59.4336C184.103 58.8737 184.441 58.0534 184.441 56.9727C184.441 55.8789 184.038 55.0977 183.23 54.6289C182.436 54.1471 181.173 53.9062 179.441 53.9062H176.258V60.2539ZM176.258 65.0586V72.5H180.203C182.026 72.5 183.296 72.1484 184.012 71.4453C184.728 70.7422 185.086 69.7982 185.086 68.6133C185.086 67.9102 184.93 67.2917 184.617 66.7578C184.305 66.224 183.777 65.8073 183.035 65.5078C182.306 65.2083 181.297 65.0586 180.008 65.0586H176.258Z" fill="white"/>
<path d="M113.008 103.031C113.008 103.599 112.87 104.078 112.594 104.469C112.318 104.859 111.914 105.156 111.383 105.359C110.857 105.557 110.211 105.656 109.445 105.656C108.841 105.656 108.32 105.612 107.883 105.523C107.451 105.44 107.042 105.31 106.656 105.133V103.547C107.068 103.74 107.529 103.906 108.039 104.047C108.555 104.188 109.042 104.258 109.5 104.258C110.104 104.258 110.539 104.164 110.805 103.977C111.07 103.784 111.203 103.529 111.203 103.211C111.203 103.023 111.148 102.857 111.039 102.711C110.935 102.56 110.737 102.406 110.445 102.25C110.159 102.089 109.737 101.896 109.18 101.672C108.633 101.453 108.172 101.234 107.797 101.016C107.422 100.797 107.138 100.534 106.945 100.227C106.753 99.9141 106.656 99.5156 106.656 99.0312C106.656 98.2656 106.958 97.6849 107.562 97.2891C108.172 96.888 108.977 96.6875 109.977 96.6875C110.508 96.6875 111.008 96.7422 111.477 96.8516C111.951 96.9557 112.414 97.1094 112.867 97.3125L112.289 98.6953C111.898 98.5234 111.505 98.3828 111.109 98.2734C110.719 98.1589 110.32 98.1016 109.914 98.1016C109.44 98.1016 109.078 98.1745 108.828 98.3203C108.583 98.4661 108.461 98.6745 108.461 98.9453C108.461 99.1484 108.521 99.3203 108.641 99.4609C108.76 99.6016 108.966 99.7422 109.258 99.8828C109.555 100.023 109.966 100.198 110.492 100.406C111.008 100.604 111.453 100.812 111.828 101.031C112.208 101.245 112.5 101.508 112.703 101.82C112.906 102.133 113.008 102.536 113.008 103.031ZM116.828 96.8516V105.5H114.992V96.8516H116.828ZM115.922 93.5391C116.203 93.5391 116.445 93.6146 116.648 93.7656C116.857 93.9167 116.961 94.1771 116.961 94.5469C116.961 94.9115 116.857 95.1719 116.648 95.3281C116.445 95.4792 116.203 95.5547 115.922 95.5547C115.63 95.5547 115.383 95.4792 115.18 95.3281C114.982 95.1719 114.883 94.9115 114.883 94.5469C114.883 94.1771 114.982 93.9167 115.18 93.7656C115.383 93.6146 115.63 93.5391 115.922 93.5391ZM122.68 104.172C122.919 104.172 123.156 104.151 123.391 104.109C123.625 104.062 123.839 104.008 124.031 103.945V105.336C123.828 105.424 123.565 105.5 123.242 105.562C122.919 105.625 122.583 105.656 122.234 105.656C121.745 105.656 121.305 105.576 120.914 105.414C120.523 105.247 120.214 104.964 119.984 104.562C119.755 104.161 119.641 103.607 119.641 102.898V98.25H118.461V97.4297L119.727 96.7812L120.328 94.9297H121.484V96.8516H123.961V98.25H121.484V102.875C121.484 103.312 121.594 103.638 121.812 103.852C122.031 104.065 122.32 104.172 122.68 104.172ZM129.234 96.6875C130.005 96.6875 130.667 96.8464 131.219 97.1641C131.771 97.4818 132.195 97.9323 132.492 98.5156C132.789 99.099 132.938 99.7969 132.938 100.609V101.594H127.164C127.185 102.432 127.409 103.078 127.836 103.531C128.268 103.984 128.872 104.211 129.648 104.211C130.201 104.211 130.695 104.159 131.133 104.055C131.576 103.945 132.031 103.786 132.5 103.578V105.07C132.068 105.273 131.628 105.422 131.18 105.516C130.732 105.609 130.195 105.656 129.57 105.656C128.721 105.656 127.974 105.492 127.328 105.164C126.688 104.831 126.185 104.336 125.82 103.68C125.461 103.023 125.281 102.208 125.281 101.234C125.281 100.266 125.445 99.4427 125.773 98.7656C126.102 98.0885 126.562 97.5729 127.156 97.2188C127.75 96.8646 128.443 96.6875 129.234 96.6875ZM129.234 98.0703C128.656 98.0703 128.188 98.2578 127.828 98.6328C127.474 99.0078 127.266 99.5573 127.203 100.281H131.141C131.135 99.849 131.062 99.4661 130.922 99.1328C130.786 98.7995 130.578 98.5391 130.297 98.3516C130.021 98.1641 129.667 98.0703 129.234 98.0703ZM140.82 103.031C140.82 103.599 140.682 104.078 140.406 104.469C140.13 104.859 139.727 105.156 139.195 105.359C138.669 105.557 138.023 105.656 137.258 105.656C136.654 105.656 136.133 105.612 135.695 105.523C135.263 105.44 134.854 105.31 134.469 105.133V103.547C134.88 103.74 135.341 103.906 135.852 104.047C136.367 104.188 136.854 104.258 137.312 104.258C137.917 104.258 138.352 104.164 138.617 103.977C138.883 103.784 139.016 103.529 139.016 103.211C139.016 103.023 138.961 102.857 138.852 102.711C138.747 102.56 138.549 102.406 138.258 102.25C137.971 102.089 137.549 101.896 136.992 101.672C136.445 101.453 135.984 101.234 135.609 101.016C135.234 100.797 134.951 100.534 134.758 100.227C134.565 99.9141 134.469 99.5156 134.469 99.0312C134.469 98.2656 134.771 97.6849 135.375 97.2891C135.984 96.888 136.789 96.6875 137.789 96.6875C138.32 96.6875 138.82 96.7422 139.289 96.8516C139.763 96.9557 140.227 97.1094 140.68 97.3125L140.102 98.6953C139.711 98.5234 139.318 98.3828 138.922 98.2734C138.531 98.1589 138.133 98.1016 137.727 98.1016C137.253 98.1016 136.891 98.1745 136.641 98.3203C136.396 98.4661 136.273 98.6745 136.273 98.9453C136.273 99.1484 136.333 99.3203 136.453 99.4609C136.573 99.6016 136.779 99.7422 137.07 99.8828C137.367 100.023 137.779 100.198 138.305 100.406C138.82 100.604 139.266 100.812 139.641 101.031C140.021 101.245 140.312 101.508 140.516 101.82C140.719 102.133 140.82 102.536 140.82 103.031ZM144.656 103.641L144.766 103.82C144.672 104.195 144.552 104.599 144.406 105.031C144.26 105.464 144.102 105.896 143.93 106.328C143.758 106.766 143.583 107.177 143.406 107.562H142.062C142.172 107.141 142.276 106.698 142.375 106.234C142.479 105.776 142.573 105.323 142.656 104.875C142.745 104.422 142.815 104.01 142.867 103.641H144.656ZM153.164 105.5H151.32V93.3438H153.164V105.5ZM157.625 96.8516V105.5H155.789V96.8516H157.625ZM156.719 93.5391C157 93.5391 157.242 93.6146 157.445 93.7656C157.654 93.9167 157.758 94.1771 157.758 94.5469C157.758 94.9115 157.654 95.1719 157.445 95.3281C157.242 95.4792 157 95.5547 156.719 95.5547C156.427 95.5547 156.18 95.4792 155.977 95.3281C155.779 95.1719 155.68 94.9115 155.68 94.5469C155.68 94.1771 155.779 93.9167 155.977 93.7656C156.18 93.6146 156.427 93.5391 156.719 93.5391ZM164.766 96.6875C165.74 96.6875 166.497 96.9401 167.039 97.4453C167.586 97.9453 167.859 98.75 167.859 99.8594V105.5H166.023V100.203C166.023 99.5312 165.885 99.0286 165.609 98.6953C165.333 98.3568 164.906 98.1875 164.328 98.1875C163.49 98.1875 162.906 98.4453 162.578 98.9609C162.255 99.4766 162.094 100.224 162.094 101.203V105.5H160.258V96.8516H161.688L161.945 98.0234H162.047C162.234 97.7214 162.466 97.474 162.742 97.2812C163.023 97.0833 163.336 96.9349 163.68 96.8359C164.029 96.737 164.391 96.6875 164.766 96.6875ZM172.266 93.3438V99.2188C172.266 99.4844 172.255 99.776 172.234 100.094C172.214 100.406 172.193 100.701 172.172 100.977H172.211C172.346 100.794 172.508 100.581 172.695 100.336C172.888 100.091 173.07 99.8776 173.242 99.6953L175.883 96.8516H177.992L174.531 100.57L178.219 105.5H176.062L173.297 101.703L172.266 102.586V105.5H170.43V93.3438H172.266ZM185.414 103.031C185.414 103.599 185.276 104.078 185 104.469C184.724 104.859 184.32 105.156 183.789 105.359C183.263 105.557 182.617 105.656 181.852 105.656C181.247 105.656 180.727 105.612 180.289 105.523C179.857 105.44 179.448 105.31 179.062 105.133V103.547C179.474 103.74 179.935 103.906 180.445 104.047C180.961 104.188 181.448 104.258 181.906 104.258C182.51 104.258 182.945 104.164 183.211 103.977C183.477 103.784 183.609 103.529 183.609 103.211C183.609 103.023 183.555 102.857 183.445 102.711C183.341 102.56 183.143 102.406 182.852 102.25C182.565 102.089 182.143 101.896 181.586 101.672C181.039 101.453 180.578 101.234 180.203 101.016C179.828 100.797 179.544 100.534 179.352 100.227C179.159 99.9141 179.062 99.5156 179.062 99.0312C179.062 98.2656 179.365 97.6849 179.969 97.2891C180.578 96.888 181.383 96.6875 182.383 96.6875C182.914 96.6875 183.414 96.7422 183.883 96.8516C184.357 96.9557 184.82 97.1094 185.273 97.3125L184.695 98.6953C184.305 98.5234 183.911 98.3828 183.516 98.2734C183.125 98.1589 182.727 98.1016 182.32 98.1016C181.846 98.1016 181.484 98.1745 181.234 98.3203C180.99 98.4661 180.867 98.6745 180.867 98.9453C180.867 99.1484 180.927 99.3203 181.047 99.4609C181.167 99.6016 181.372 99.7422 181.664 99.8828C181.961 100.023 182.372 100.198 182.898 100.406C183.414 100.604 183.859 100.812 184.234 101.031C184.615 101.245 184.906 101.508 185.109 101.82C185.312 102.133 185.414 102.536 185.414 103.031ZM189.25 103.641L189.359 103.82C189.266 104.195 189.146 104.599 189 105.031C188.854 105.464 188.695 105.896 188.523 106.328C188.352 106.766 188.177 107.177 188 107.562H186.656C186.766 107.141 186.87 106.698 186.969 106.234C187.073 105.776 187.167 105.323 187.25 104.875C187.339 104.422 187.409 104.01 187.461 103.641H189.25ZM197.75 93.3438V96.2734C197.75 96.612 197.74 96.9453 197.719 97.2734C197.703 97.5964 197.688 97.849 197.672 98.0312H197.75C197.984 97.6562 198.31 97.3411 198.727 97.0859C199.148 96.8255 199.688 96.6953 200.344 96.6953C201.37 96.6953 202.195 97.0729 202.82 97.8281C203.445 98.5781 203.758 99.6901 203.758 101.164C203.758 102.143 203.615 102.966 203.328 103.633C203.042 104.299 202.638 104.805 202.117 105.148C201.602 105.487 200.995 105.656 200.297 105.656C199.641 105.656 199.109 105.536 198.703 105.297C198.302 105.052 197.987 104.768 197.758 104.445H197.625L197.289 105.5H195.914V93.3438H197.75ZM199.859 98.1875C199.339 98.1875 198.924 98.2917 198.617 98.5C198.315 98.7083 198.096 99.0208 197.961 99.4375C197.826 99.849 197.755 100.372 197.75 101.008V101.172C197.75 102.135 197.901 102.872 198.203 103.383C198.51 103.893 199.068 104.148 199.875 104.148C200.516 104.148 201.008 103.891 201.352 103.375C201.695 102.854 201.867 102.109 201.867 101.141C201.867 100.161 201.695 99.4245 201.352 98.9297C201.013 98.4349 200.516 98.1875 199.859 98.1875ZM209.273 96.6875C210.367 96.6875 211.193 96.9297 211.75 97.4141C212.312 97.8984 212.594 98.6536 212.594 99.6797V105.5H211.289L210.938 104.273H210.875C210.63 104.586 210.378 104.844 210.117 105.047C209.857 105.25 209.555 105.401 209.211 105.5C208.872 105.604 208.458 105.656 207.969 105.656C207.453 105.656 206.992 105.562 206.586 105.375C206.18 105.182 205.859 104.891 205.625 104.5C205.391 104.109 205.273 103.615 205.273 103.016C205.273 102.125 205.604 101.456 206.266 101.008C206.932 100.56 207.938 100.312 209.281 100.266L210.781 100.211V99.7578C210.781 99.1589 210.641 98.7318 210.359 98.4766C210.083 98.2214 209.693 98.0938 209.188 98.0938C208.755 98.0938 208.336 98.1562 207.93 98.2812C207.523 98.4062 207.128 98.5599 206.742 98.7422L206.148 97.4453C206.57 97.2214 207.049 97.0391 207.586 96.8984C208.128 96.7578 208.69 96.6875 209.273 96.6875ZM210.773 101.367L209.656 101.406C208.74 101.438 208.096 101.594 207.727 101.875C207.357 102.156 207.172 102.542 207.172 103.031C207.172 103.458 207.299 103.771 207.555 103.969C207.81 104.161 208.146 104.258 208.562 104.258C209.198 104.258 209.724 104.078 210.141 103.719C210.562 103.354 210.773 102.82 210.773 102.117V101.367ZM219.672 96.6875C220.646 96.6875 221.404 96.9401 221.945 97.4453C222.492 97.9453 222.766 98.75 222.766 99.8594V105.5H220.93V100.203C220.93 99.5312 220.792 99.0286 220.516 98.6953C220.24 98.3568 219.812 98.1875 219.234 98.1875C218.396 98.1875 217.812 98.4453 217.484 98.9609C217.161 99.4766 217 100.224 217 101.203V105.5H215.164V96.8516H216.594L216.852 98.0234H216.953C217.141 97.7214 217.372 97.474 217.648 97.2812C217.93 97.0833 218.242 96.9349 218.586 96.8359C218.935 96.737 219.297 96.6875 219.672 96.6875ZM229.844 96.6875C230.818 96.6875 231.576 96.9401 232.117 97.4453C232.664 97.9453 232.938 98.75 232.938 99.8594V105.5H231.102V100.203C231.102 99.5312 230.964 99.0286 230.688 98.6953C230.411 98.3568 229.984 98.1875 229.406 98.1875C228.568 98.1875 227.984 98.4453 227.656 98.9609C227.333 99.4766 227.172 100.224 227.172 101.203V105.5H225.336V96.8516H226.766L227.023 98.0234H227.125C227.312 97.7214 227.544 97.474 227.82 97.2812C228.102 97.0833 228.414 96.9349 228.758 96.8359C229.107 96.737 229.469 96.6875 229.844 96.6875ZM238.953 96.6875C239.724 96.6875 240.385 96.8464 240.938 97.1641C241.49 97.4818 241.914 97.9323 242.211 98.5156C242.508 99.099 242.656 99.7969 242.656 100.609V101.594H236.883C236.904 102.432 237.128 103.078 237.555 103.531C237.987 103.984 238.591 104.211 239.367 104.211C239.919 104.211 240.414 104.159 240.852 104.055C241.294 103.945 241.75 103.786 242.219 103.578V105.07C241.786 105.273 241.346 105.422 240.898 105.516C240.451 105.609 239.914 105.656 239.289 105.656C238.44 105.656 237.693 105.492 237.047 105.164C236.406 104.831 235.904 104.336 235.539 103.68C235.18 103.023 235 102.208 235 101.234C235 100.266 235.164 99.4427 235.492 98.7656C235.82 98.0885 236.281 97.5729 236.875 97.2188C237.469 96.8646 238.161 96.6875 238.953 96.6875ZM238.953 98.0703C238.375 98.0703 237.906 98.2578 237.547 98.6328C237.193 99.0078 236.984 99.5573 236.922 100.281H240.859C240.854 99.849 240.781 99.4661 240.641 99.1328C240.505 98.7995 240.297 98.5391 240.016 98.3516C239.74 98.1641 239.385 98.0703 238.953 98.0703ZM249.109 96.6875C249.255 96.6875 249.414 96.6953 249.586 96.7109C249.758 96.7266 249.906 96.7474 250.031 96.7734L249.859 98.4922C249.75 98.4609 249.615 98.4375 249.453 98.4219C249.297 98.4062 249.156 98.3984 249.031 98.3984C248.703 98.3984 248.391 98.4531 248.094 98.5625C247.797 98.6667 247.534 98.8281 247.305 99.0469C247.076 99.2604 246.896 99.5286 246.766 99.8516C246.635 100.174 246.57 100.549 246.57 100.977V105.5H244.727V96.8516H246.164L246.414 98.375H246.5C246.672 98.0677 246.885 97.7865 247.141 97.5312C247.396 97.276 247.688 97.0729 248.016 96.9219C248.349 96.7656 248.714 96.6875 249.109 96.6875ZM257.445 103.031C257.445 103.599 257.307 104.078 257.031 104.469C256.755 104.859 256.352 105.156 255.82 105.359C255.294 105.557 254.648 105.656 253.883 105.656C253.279 105.656 252.758 105.612 252.32 105.523C251.888 105.44 251.479 105.31 251.094 105.133V103.547C251.505 103.74 251.966 103.906 252.477 104.047C252.992 104.188 253.479 104.258 253.938 104.258C254.542 104.258 254.977 104.164 255.242 103.977C255.508 103.784 255.641 103.529 255.641 103.211C255.641 103.023 255.586 102.857 255.477 102.711C255.372 102.56 255.174 102.406 254.883 102.25C254.596 102.089 254.174 101.896 253.617 101.672C253.07 101.453 252.609 101.234 252.234 101.016C251.859 100.797 251.576 100.534 251.383 100.227C251.19 99.9141 251.094 99.5156 251.094 99.0312C251.094 98.2656 251.396 97.6849 252 97.2891C252.609 96.888 253.414 96.6875 254.414 96.6875C254.945 96.6875 255.445 96.7422 255.914 96.8516C256.388 96.9557 256.852 97.1094 257.305 97.3125L256.727 98.6953C256.336 98.5234 255.943 98.3828 255.547 98.2734C255.156 98.1589 254.758 98.1016 254.352 98.1016C253.878 98.1016 253.516 98.1745 253.266 98.3203C253.021 98.4661 252.898 98.6745 252.898 98.9453C252.898 99.1484 252.958 99.3203 253.078 99.4609C253.198 99.6016 253.404 99.7422 253.695 99.8828C253.992 100.023 254.404 100.198 254.93 100.406C255.445 100.604 255.891 100.812 256.266 101.031C256.646 101.245 256.938 101.508 257.141 101.82C257.344 102.133 257.445 102.536 257.445 103.031Z" fill="white"/>
</svg>
