<svg width="280" height="145" viewBox="0 0 280 145" fill="none" xmlns="http://www.w3.org/2000/svg">
<g clip-path="url(#clip0_73_187)">
<path d="M233.771 79.7243L239.319 83.3879C237.518 86.015 233.211 90.5222 225.765 90.5222C216.518 90.5222 209.631 83.4361 209.631 74.4218C209.631 64.8291 216.591 58.3215 224.986 58.3215C233.43 58.3215 237.567 64.9738 238.905 68.565L239.635 70.3968L217.881 79.3146C219.535 82.5443 222.115 84.1833 225.765 84.1833C229.415 84.1833 231.946 82.3997 233.771 79.7243ZM216.713 73.9157L231.24 67.9383C230.437 65.9379 228.052 64.5158 225.205 64.5158C221.579 64.5158 216.542 67.6973 216.713 73.9157Z" fill="white"/>
<path d="M199.143 41.9077H206.152V89.0518H199.143V41.9077Z" fill="white"/>
<path d="M188.096 59.5748H194.86V88.2083C194.86 100.091 187.779 104.983 179.408 104.983C171.524 104.983 166.779 99.7292 165.003 95.4631L171.208 92.9082C172.327 95.5354 175.028 98.6446 179.408 98.6446C184.786 98.6446 188.096 95.3426 188.096 89.1724V86.8586H187.852C186.246 88.7867 183.18 90.5221 179.287 90.5221C171.159 90.5221 163.713 83.5083 163.713 74.47C163.713 65.3834 171.159 58.2974 179.287 58.2974C183.156 58.2974 186.246 60.0086 187.852 61.8886H188.096V59.5748ZM188.582 74.47C188.582 68.7818 184.762 64.6363 179.895 64.6363C174.98 64.6363 170.843 68.7818 170.843 74.47C170.843 80.0858 174.98 84.1591 179.895 84.1591C184.762 84.1832 188.582 80.0858 188.582 74.47Z" fill="white"/>
<path d="M125.241 74.3495C125.241 83.6289 117.941 90.4498 108.986 90.4498C100.031 90.4498 92.7305 83.6048 92.7305 74.3495C92.7305 65.0219 100.031 58.2251 108.986 58.2251C117.941 58.2251 125.241 65.0219 125.241 74.3495ZM118.135 74.3495C118.135 68.565 113.901 64.5881 108.986 64.5881C104.07 64.5881 99.836 68.565 99.836 74.3495C99.836 80.0859 104.07 84.1109 108.986 84.1109C113.901 84.1109 118.135 80.0859 118.135 74.3495Z" fill="white"/>
<path d="M160.744 74.4218C160.744 83.7012 153.444 90.5222 144.489 90.5222C135.534 90.5222 128.234 83.7012 128.234 74.4218C128.234 65.0943 135.534 58.3215 144.489 58.3215C153.444 58.3215 160.744 65.0702 160.744 74.4218ZM153.614 74.4218C153.614 68.6373 149.38 64.6604 144.465 64.6604C139.549 64.6604 135.315 68.6373 135.315 74.4218C135.315 80.1582 139.549 84.1833 144.465 84.1833C149.404 84.1833 153.614 80.1341 153.614 74.4218Z" fill="white"/>
<path d="M66.0118 83.4601C55.8159 83.4601 47.8343 75.3135 47.8343 65.2147C47.8343 55.1158 55.8159 46.9692 66.0118 46.9692C71.5113 46.9692 75.5264 49.1143 78.4952 51.862L83.3863 47.0174C79.2495 43.0888 73.7257 40.1001 66.0118 40.1001C52.0441 40.1001 40.2908 51.38 40.2908 65.2147C40.2908 79.0494 52.0441 90.3292 66.0118 90.3292C73.5554 90.3292 79.2495 87.8708 83.7027 83.2914C88.2775 78.7601 89.6888 72.3971 89.6888 67.2393C89.6888 65.6244 89.4942 63.9613 89.2752 62.7321H66.0118V69.4326H82.5833C82.0966 73.6264 80.7583 76.4945 78.7872 78.4468C76.4025 80.8329 72.6307 83.4601 66.0118 83.4601Z" fill="white"/>
</g>
<defs>
<clipPath id="clip0_73_187">
<rect width="200" height="65" fill="white" transform="translate(40 40)"/>
</clipPath>
</defs>
</svg>
