<svg width="280" height="145" viewBox="0 0 280 145" fill="none" xmlns="http://www.w3.org/2000/svg">
<path fill-rule="evenodd" clip-rule="evenodd" d="M40.075 40.6553C40.0301 40.2351 39.9028 39.8278 39.7004 39.4569C39.4979 39.0859 39.2243 38.7585 38.8952 38.4933C38.5661 38.2282 38.1879 38.0306 37.7823 37.9118C37.3767 37.793 36.9517 37.7554 36.5315 37.8011C34.7144 38.0033 32.9195 38.2073 31.147 38.4131L30.6892 38.4645C27.562 38.8312 24.6503 40.2437 22.4267 42.473C20.203 44.7023 18.7978 47.6175 18.439 50.7456C18.223 52.6553 18.0121 54.5925 17.8064 56.5571C17.7513 56.9827 17.782 57.415 17.8967 57.8286C18.0113 58.2422 18.2077 58.6286 18.4741 58.9651C18.7405 59.3015 19.0716 59.5813 19.4479 59.7877C19.8241 59.9942 20.2379 60.1232 20.6648 60.1671C21.0917 60.2111 21.5231 60.1691 21.9336 60.0437C22.344 59.9182 22.7252 59.7119 23.0546 59.4367C23.3839 59.1616 23.6549 58.8233 23.8515 58.4418C24.048 58.0603 24.1662 57.6433 24.199 57.2153C24.4012 55.2885 24.6121 53.3685 24.8315 51.4553C25.0289 49.7726 25.7872 48.2054 26.9843 47.0065C28.1814 45.8075 29.7474 45.0467 31.4298 44.8468L31.8875 44.7953C33.6567 44.5896 35.4344 44.3873 37.2207 44.1885C37.6404 44.1436 38.0472 44.0165 38.4179 43.8144C38.7885 43.6123 39.1156 43.3391 39.3807 43.0106C39.6458 42.682 39.8435 42.3044 39.9626 41.8994C40.0817 41.4944 40.1199 41.07 40.075 40.6502M64.9304 40.6502C64.9752 40.23 65.1025 39.8227 65.305 39.4517C65.5074 39.0807 65.781 38.7533 66.1102 38.4882C66.4393 38.2231 66.8175 38.0255 67.2231 37.9067C67.6286 37.7879 68.0537 37.7503 68.4738 37.7959C70.291 37.9982 72.0858 38.2022 73.8584 38.4079L74.3161 38.4593C77.4434 38.826 80.355 40.2386 82.5787 42.4679C84.8023 44.6971 86.2076 47.6123 86.5664 50.7405C86.7824 52.6502 86.9932 54.5891 87.199 56.5571C87.263 57.3925 86.9982 58.22 86.4611 58.8631C85.9239 59.5063 85.1569 59.9142 84.3233 60C83.4898 60.0859 82.6557 59.8428 81.9988 59.3226C81.3418 58.8025 80.914 58.0463 80.8064 57.2153C80.6007 55.2885 80.3898 53.3685 80.1738 51.4553C79.9765 49.7726 79.2181 48.2054 78.021 47.0065C76.824 45.8075 75.2579 45.0467 73.5755 44.8468L73.1178 44.7953C71.3487 44.5896 69.571 44.3873 67.7847 44.1885C67.3649 44.1436 66.9581 44.0165 66.5875 43.8144C66.2169 43.6123 65.8897 43.3391 65.6246 43.0106C65.3596 42.682 65.1619 42.3044 65.0427 41.8994C64.9236 41.4944 64.8854 41.07 64.9304 40.6502ZM38.0692 51.0336C39.5092 50.8845 41.0367 50.7559 42.6258 50.7559C44.2098 50.7559 45.7424 50.8845 47.1772 51.0336C50.8492 51.4245 53.8115 54.3765 54.1818 58.0639C54.3258 59.4885 54.4441 61.0108 54.4441 62.5793C54.4441 64.1479 54.3258 65.6651 54.1818 67.0896C53.99 68.8842 53.191 70.5594 51.9172 71.8379C50.6434 73.1164 48.9711 73.9215 47.1772 74.1199C45.7424 74.2742 44.2098 74.3976 42.6258 74.3976C41.0418 74.3976 39.5041 74.2691 38.0692 74.1199C36.2754 73.9215 34.6031 73.1164 33.3293 71.8379C32.0555 70.5594 31.2565 68.8842 31.0647 67.0896C30.9056 65.5913 30.8198 64.0861 30.8075 62.5793C30.8075 61.0108 30.9207 59.4936 31.0647 58.0639C31.2565 56.2694 32.0555 54.5941 33.3293 53.3156C34.6031 52.0371 36.2754 51.232 38.0692 51.0336ZM38.923 82.8165C38.923 81.7935 38.5166 80.8124 37.7932 80.0891C37.0699 79.3657 36.0888 78.9593 35.0658 78.9593C34.0428 78.9593 33.0618 79.3657 32.3384 80.0891C31.6151 80.8124 31.2087 81.7935 31.2087 82.8165V90.3816C31.2087 92.5159 32.9367 94.2388 35.0658 94.2388H42.4921C43.5151 94.2388 44.4962 93.8324 45.2195 93.109C45.9429 92.3857 46.3492 91.4046 46.3492 90.3816C46.3492 89.3587 45.9429 88.3776 45.2195 87.6542C44.4962 86.9309 43.5151 86.5245 42.4921 86.5245H38.923V82.8165ZM70.2018 94.2439C69.1788 94.2439 68.1978 93.8375 67.4744 93.1142C66.751 92.3908 66.3447 91.4098 66.3447 90.3868V86.6839H62.7858C61.7628 86.6839 60.7818 86.2775 60.0584 85.5542C59.3351 84.8308 58.9287 83.8498 58.9287 82.8268C58.9287 81.8038 59.3351 80.8227 60.0584 80.0994C60.7818 79.376 61.7628 78.9696 62.7858 78.9696H70.207C71.2299 78.9696 72.211 79.376 72.9344 80.0994C73.6577 80.8227 74.0641 81.8038 74.0641 82.8268V90.3868C74.0641 91.4098 73.6577 92.3908 72.9344 93.1142C72.211 93.8375 71.2248 94.2439 70.2018 94.2439ZM70.3458 75.6113C71.3688 75.6113 72.3499 75.205 73.0732 74.4816C73.7966 73.7583 74.203 72.7772 74.203 71.7542C74.203 70.7312 73.7966 69.7501 73.0732 69.0268C72.3499 68.3034 71.3688 67.8971 70.3458 67.8971H62.9144C61.8914 67.8971 60.9103 68.3034 60.187 69.0268C59.4636 69.7501 59.0572 70.7312 59.0572 71.7542C59.0572 72.7772 59.4636 73.7583 60.187 74.4816C60.9103 75.205 61.8914 75.6113 62.9144 75.6113H70.3458ZM51.5744 94.1771C50.5514 94.1771 49.5703 93.7707 48.847 93.0473C48.1236 92.324 47.7172 91.3429 47.7172 90.3199V82.8885C47.7172 81.8655 48.1236 80.8844 48.847 80.1611C49.5703 79.4377 50.5514 79.0313 51.5744 79.0313C52.5974 79.0313 53.5784 79.4377 54.3018 80.1611C55.0252 80.8844 55.4315 81.8655 55.4315 82.8885V90.3148C55.4315 91.3378 55.0252 92.3188 54.3018 93.0422C53.5784 93.7655 52.5974 94.1719 51.5744 94.1719M66.3498 62.4353C66.3498 63.4583 66.7562 64.4394 67.4795 65.1628C68.2029 65.8861 69.184 66.2925 70.207 66.2925C71.2299 66.2925 72.211 65.8861 72.9344 65.1628C73.6577 64.4394 74.0641 63.4583 74.0641 62.4353V54.8753C74.0641 53.8524 73.6577 52.8713 72.9344 52.1479C72.211 51.4246 71.2299 51.0182 70.207 51.0182H62.7858C62.2793 51.0182 61.7777 51.118 61.3097 51.3118C60.8418 51.5057 60.4166 51.7898 60.0584 52.1479C59.7002 52.5061 59.4161 52.9313 59.2223 53.3993C59.0284 53.8673 58.9287 54.3688 58.9287 54.8753C58.9287 55.3819 59.0284 55.8834 59.2223 56.3514C59.4161 56.8194 59.7002 57.2446 60.0584 57.6028C60.4166 57.9609 60.8418 58.245 61.3097 58.4389C61.7777 58.6327 62.2793 58.7325 62.7858 58.7325H66.3498V62.4353ZM68.479 107.194C67.6313 107.285 66.782 107.036 66.1179 106.501C65.4539 105.966 65.0295 105.19 64.9381 104.342C64.8467 103.494 65.0958 102.645 65.6306 101.981C66.1654 101.317 66.9421 100.892 67.7898 100.801C69.5683 100.606 71.3461 100.404 73.123 100.194L73.5807 100.143C75.2631 99.9428 76.8291 99.182 78.0262 97.9831C79.2233 96.7841 79.9816 95.2169 80.179 93.5342C80.3984 91.6211 80.6092 89.7011 80.8115 87.7742C80.8443 87.3463 80.9625 86.9293 81.159 86.5477C81.3556 86.1662 81.6265 85.8279 81.9559 85.5528C82.2853 85.2777 82.6665 85.0713 83.0769 84.9459C83.4874 84.8204 83.9188 84.7785 84.3457 84.8224C84.7726 84.8664 85.1864 84.9954 85.5626 85.2018C85.9389 85.4083 86.27 85.688 86.5364 86.0245C86.8028 86.361 86.9992 86.7474 87.1138 87.1609C87.2285 87.5745 87.2592 88.0069 87.2041 88.4325C86.9984 90.4005 86.7875 92.3393 86.5715 94.2491C86.2127 97.3772 84.8075 100.292 82.5838 102.522C80.3602 104.751 77.4485 106.164 74.3212 106.53L73.8584 106.582C72.0892 106.787 70.2961 106.991 68.479 107.194ZM36.5418 107.194C36.9616 107.239 37.386 107.2 37.791 107.081C38.196 106.962 38.5735 106.764 38.9021 106.499C39.2307 106.234 39.5038 105.907 39.7059 105.536C39.908 105.166 40.0352 104.759 40.0801 104.339C40.125 103.92 40.0868 103.495 39.9677 103.09C39.8485 102.685 39.6508 102.308 39.3858 101.979C39.1207 101.651 38.7936 101.377 38.423 101.175C38.0523 100.973 37.6456 100.846 37.2258 100.801C35.4395 100.606 33.6618 100.403 31.8927 100.194L31.435 100.143C29.7526 99.9428 28.1865 99.182 26.9895 97.9831C25.7924 96.7841 25.034 95.2169 24.8367 93.5342C24.6173 91.6152 24.4064 89.6951 24.2041 87.7742C24.0965 86.9432 23.6687 86.1871 23.0117 85.6669C22.3548 85.1467 21.5207 84.9037 20.6872 84.9895C19.8536 85.0754 19.0866 85.4833 18.5494 86.1264C18.0123 86.7695 17.7475 87.597 17.8115 88.4325C18.0172 90.4005 18.2281 92.3393 18.4441 94.2491C18.8029 97.3772 20.2082 100.292 22.4318 102.522C24.6555 104.751 27.5671 106.164 30.6944 106.53L31.1572 106.582C32.923 106.787 34.7161 106.991 36.5367 107.194" fill="white"/>
<path d="M130.047 74.1836C130.047 76.306 129.793 78.2526 129.285 80.0234C128.79 81.7812 128.022 83.3047 126.98 84.5938C125.939 85.8828 124.617 86.8919 123.016 87.6211L129.891 95.2969H122.137L116.902 88.8906C116.811 88.8906 116.733 88.8906 116.668 88.8906C116.603 88.8906 116.531 88.8906 116.453 88.8906C114.122 88.8906 112.104 88.5456 110.398 87.8555C108.693 87.1523 107.28 86.1497 106.16 84.8477C105.053 83.5456 104.227 81.9896 103.68 80.1797C103.133 78.3698 102.859 76.3581 102.859 74.1445C102.859 71.1888 103.341 68.6172 104.305 66.4297C105.281 64.2292 106.779 62.5234 108.797 61.3125C110.815 60.1016 113.38 59.4961 116.492 59.4961C119.591 59.4961 122.137 60.1016 124.129 61.3125C126.134 62.5234 127.618 64.2292 128.582 66.4297C129.559 68.6302 130.047 71.2148 130.047 74.1836ZM109.207 74.1836C109.207 76.1758 109.454 77.8945 109.949 79.3398C110.457 80.7721 111.245 81.8789 112.312 82.6602C113.38 83.4284 114.76 83.8125 116.453 83.8125C118.172 83.8125 119.565 83.4284 120.633 82.6602C121.701 81.8789 122.475 80.7721 122.957 79.3398C123.452 77.8945 123.699 76.1758 123.699 74.1836C123.699 71.1888 123.139 68.832 122.02 67.1133C120.9 65.3945 119.057 64.5352 116.492 64.5352C114.786 64.5352 113.393 64.9258 112.312 65.707C111.245 66.4753 110.457 67.582 109.949 69.0273C109.454 70.4596 109.207 72.1784 109.207 74.1836ZM144.285 59.9453C146.876 59.9453 149.012 60.2578 150.691 60.8828C152.384 61.5078 153.641 62.4518 154.461 63.7148C155.281 64.9779 155.691 66.5729 155.691 68.5C155.691 69.8021 155.444 70.9414 154.949 71.918C154.454 72.8945 153.803 73.7214 152.996 74.3984C152.189 75.0755 151.316 75.6289 150.379 76.0586L158.777 88.5H152.059L145.242 77.543H142.02V88.5H135.965V59.9453H144.285ZM143.855 64.9062H142.02V72.6211H143.973C145.978 72.6211 147.41 72.2891 148.27 71.625C149.142 70.9479 149.578 69.9583 149.578 68.6562C149.578 67.3021 149.109 66.3385 148.172 65.7656C147.247 65.1927 145.809 64.9062 143.855 64.9062ZM181.16 88.8906C178.999 88.8906 177.156 88.5 175.633 87.7188C174.109 86.9245 172.951 85.7005 172.156 84.0469C171.362 82.3932 170.965 80.2773 170.965 77.6992C170.965 75.0299 171.414 72.8555 172.312 71.1758C173.224 69.4831 174.48 68.2396 176.082 67.4453C177.697 66.651 179.565 66.2539 181.688 66.2539C183.198 66.2539 184.5 66.4036 185.594 66.7031C186.701 66.9896 187.664 67.3346 188.484 67.7383L186.727 72.3477C185.789 71.9701 184.917 71.6641 184.109 71.4297C183.302 71.1823 182.495 71.0586 181.688 71.0586C180.646 71.0586 179.78 71.306 179.09 71.8008C178.4 72.2826 177.885 73.0117 177.547 73.9883C177.208 74.9648 177.039 76.1888 177.039 77.6602C177.039 79.1055 177.221 80.3034 177.586 81.2539C177.951 82.2044 178.478 82.9141 179.168 83.3828C179.858 83.8385 180.698 84.0664 181.688 84.0664C182.924 84.0664 184.025 83.9036 184.988 83.5781C185.952 83.2396 186.889 82.7708 187.801 82.1719V87.2695C186.889 87.8424 185.932 88.2526 184.93 88.5C183.94 88.7604 182.684 88.8906 181.16 88.8906ZM212.723 77.543C212.723 79.3659 212.475 80.9805 211.98 82.3867C211.499 83.793 210.789 84.9844 209.852 85.9609C208.927 86.9245 207.807 87.6536 206.492 88.1484C205.19 88.6432 203.719 88.8906 202.078 88.8906C200.542 88.8906 199.129 88.6432 197.84 88.1484C196.564 87.6536 195.451 86.9245 194.5 85.9609C193.562 84.9844 192.833 83.793 192.312 82.3867C191.805 80.9805 191.551 79.3659 191.551 77.543C191.551 75.1211 191.98 73.0703 192.84 71.3906C193.699 69.7109 194.923 68.4349 196.512 67.5625C198.1 66.6901 199.995 66.2539 202.195 66.2539C204.24 66.2539 206.049 66.6901 207.625 67.5625C209.214 68.4349 210.457 69.7109 211.355 71.3906C212.267 73.0703 212.723 75.1211 212.723 77.543ZM197.625 77.543C197.625 78.9753 197.781 80.1797 198.094 81.1562C198.406 82.1328 198.895 82.8685 199.559 83.3633C200.223 83.8581 201.089 84.1055 202.156 84.1055C203.211 84.1055 204.064 83.8581 204.715 83.3633C205.379 82.8685 205.861 82.1328 206.16 81.1562C206.473 80.1797 206.629 78.9753 206.629 77.543C206.629 76.0977 206.473 74.8997 206.16 73.9492C205.861 72.9857 205.379 72.263 204.715 71.7812C204.051 71.2995 203.185 71.0586 202.117 71.0586C200.542 71.0586 199.396 71.599 198.68 72.6797C197.977 73.7604 197.625 75.3815 197.625 77.543ZM224.559 88.8906C222.124 88.8906 220.138 87.9401 218.602 86.0391C217.078 84.125 216.316 81.319 216.316 77.6211C216.316 73.8841 217.091 71.0586 218.641 69.1445C220.19 67.2174 222.215 66.2539 224.715 66.2539C225.757 66.2539 226.674 66.3971 227.469 66.6836C228.263 66.9701 228.947 67.3542 229.52 67.8359C230.105 68.3177 230.6 68.8581 231.004 69.457H231.199C231.121 69.0404 231.023 68.4284 230.906 67.6211C230.802 66.8008 230.75 65.9609 230.75 65.1016V58.1094H236.727V88.5H232.156L231.004 85.668H230.75C230.372 86.2669 229.897 86.8138 229.324 87.3086C228.764 87.7904 228.094 88.1745 227.312 88.4609C226.531 88.7474 225.613 88.8906 224.559 88.8906ZM226.648 84.1445C228.276 84.1445 229.422 83.6628 230.086 82.6992C230.763 81.7227 231.121 80.2578 231.16 78.3047V77.6602C231.16 75.5378 230.835 73.9167 230.184 72.7969C229.533 71.6641 228.322 71.0977 226.551 71.0977C225.236 71.0977 224.207 71.6641 223.465 72.7969C222.723 73.9297 222.352 75.5638 222.352 77.6992C222.352 79.8346 222.723 81.4427 223.465 82.5234C224.22 83.6042 225.281 84.1445 226.648 84.1445ZM251.961 66.2539C253.979 66.2539 255.717 66.6445 257.176 67.4258C258.634 68.194 259.76 69.3138 260.555 70.7852C261.349 72.2565 261.746 74.0534 261.746 76.1758V79.0664H247.664C247.729 80.7461 248.23 82.0677 249.168 83.0312C250.118 83.9818 251.434 84.457 253.113 84.457C254.507 84.457 255.783 84.3138 256.941 84.0273C258.1 83.7409 259.292 83.3112 260.516 82.7383V87.3477C259.435 87.8815 258.302 88.2721 257.117 88.5195C255.945 88.7669 254.52 88.8906 252.84 88.8906C250.652 88.8906 248.712 88.487 247.02 87.6797C245.34 86.8724 244.018 85.6419 243.055 83.9883C242.104 82.3346 241.629 80.2513 241.629 77.7383C241.629 75.1862 242.059 73.0638 242.918 71.3711C243.79 69.6654 245.001 68.3893 246.551 67.543C248.1 66.6836 249.904 66.2539 251.961 66.2539ZM252 70.4922C250.841 70.4922 249.878 70.8633 249.109 71.6055C248.354 72.3477 247.918 73.513 247.801 75.1016H256.16C256.147 74.2161 255.984 73.4284 255.672 72.7383C255.372 72.0482 254.917 71.5013 254.305 71.0977C253.706 70.694 252.938 70.4922 252 70.4922Z" fill="white"/>
</svg>
