<svg width="280" height="145" viewBox="0 0 280 145" fill="none" xmlns="http://www.w3.org/2000/svg">
<g clip-path="url(#clip0_73_236)">
<path d="M71.9004 49.8438C71.9004 49.8438 91.8486 49.8436 96.8047 51.1953C99.5594 51.9409 101.712 54.0929 102.457 56.8477C104.566 65.3385 104.079 78.7488 102.498 87.5674C101.753 90.3221 99.6004 92.4741 96.8457 93.2197C91.8896 94.5714 71.9414 94.5713 71.9414 94.5713C71.8511 94.5713 51.9829 94.5683 47.0381 93.2197C44.2833 92.4742 42.1312 90.3222 41.3857 87.5674C39.2641 79.1133 39.8456 65.6949 41.3447 56.8887C42.0902 54.1338 44.2423 51.9818 46.9971 51.2363C51.941 49.888 71.8024 49.844 71.9004 49.8438ZM65.5518 81.792L82.0996 72.208L65.5518 62.623V81.792Z" fill="white"/>
<path d="M231.889 62.8279C234.06 62.8279 235.699 63.2375 236.846 64.0158C237.992 64.794 238.812 66.0228 239.303 67.7021C239.795 69.3815 239.999 71.6752 239.999 74.6243V79.4166H229.473V80.8912L229.637 84.9462C229.76 85.8473 229.964 86.5027 230.292 86.9122C230.62 87.3218 231.152 87.5266 231.848 87.5266C232.791 87.5266 233.446 87.158 233.774 86.4207C234.142 85.6835 234.306 84.4547 234.347 82.7753L239.795 83.103C239.836 83.3488 239.836 83.6764 239.836 84.086C239.836 86.6665 239.139 88.5916 237.706 89.8613C236.272 91.1311 234.306 91.7865 231.726 91.7865C228.613 91.7865 226.442 90.8034 225.213 88.8783C223.984 86.9532 223.329 83.9222 223.329 79.8672V74.9111C223.468 67.9479 224.693 62.8484 231.889 62.8279ZM156.155 63.3604V83.8812C156.155 85.11 156.278 86.0111 156.565 86.5436C157.146 87.6823 158.653 87.3915 159.473 86.8303C159.946 86.5106 160.327 86.0729 160.579 85.5606V63.3604H166.845V91.3359H161.93L161.398 87.8953H161.275C159.923 90.4757 157.916 91.7865 155.254 91.7865C151.156 91.776 150.154 88.824 149.915 85.8256L149.899 85.614C149.868 85.1553 149.854 84.6971 149.847 84.2499V63.3604H156.155ZM188.472 63.3604V83.8812C188.472 85.11 188.595 86.0111 188.882 86.5436C189.463 87.6823 190.971 87.3915 191.79 86.8303C192.263 86.5106 192.644 86.0729 192.896 85.5606V63.3604H199.163V91.3359H194.247L193.715 87.8953H193.592C192.24 90.4757 190.233 91.7865 187.571 91.7865C183.473 91.776 182.471 88.824 182.232 85.8256L182.217 85.614C182.185 85.1553 182.171 84.6971 182.164 84.2499V63.3604H188.472ZM137.969 62.8279C140.017 62.8279 141.696 63.2375 142.925 64.0977C144.154 64.9578 145.096 66.2686 145.669 68.0708C146.243 69.873 146.529 72.2896 146.529 75.2797V79.3347C146.529 82.3248 146.243 84.7004 145.669 86.5027C145.096 88.3049 144.195 89.6156 142.925 90.4757C141.655 91.2949 139.935 91.7455 137.805 91.7455C135.593 91.7865 133.873 91.3359 132.603 90.5167C131.333 89.6566 130.432 88.3458 129.9 86.5436C129.367 84.7414 129.122 82.3657 129.122 79.3757V75.3207C129.122 72.3306 129.408 69.873 130.023 68.0708C130.637 66.2276 131.579 64.9169 132.89 64.0977C134.201 63.2785 135.88 62.8279 137.969 62.8279ZM208.993 51.605V66.3505H209.034C209.607 65.2855 210.345 64.4254 211.369 63.77C212.325 63.1268 213.452 62.7844 214.604 62.787C216.12 62.787 217.267 63.1966 218.127 63.9748C218.987 64.794 219.602 66.0638 219.97 67.825C220.327 69.5313 220.531 71.891 220.543 74.8669L220.544 75.1568V79.5805C220.544 83.7174 220.011 86.7894 219.028 88.7554C218.004 90.7215 216.448 91.7045 214.318 91.7045C213.13 91.7045 212.065 91.4178 211.082 90.8853C210.212 90.3783 209.491 89.6516 208.992 88.7793L208.911 88.6326H208.788L208.133 91.2949H202.931V51.605H208.993ZM183.926 53.0386V58.1176H177.7V91.3359H171.556V58.1176H165.289V53.0386H183.926ZM116.383 53.0386L116.387 53.054C116.447 53.3204 117.275 57.0021 118.185 61.2913L118.257 61.6311C118.294 61.8016 118.33 61.9729 118.366 62.1449L118.439 62.4897C118.451 62.5473 118.463 62.605 118.475 62.6627L118.548 63.0095C118.56 63.0674 118.572 63.1254 118.584 63.1834L118.656 63.5316L118.762 64.0405C119.377 67.0107 119.964 69.9897 120.315 72.1258H120.479C120.816 70.2096 121.304 67.7576 121.826 65.2542L121.962 64.6003C122.031 64.2731 122.1 63.9457 122.169 63.6193L122.276 63.1124C123.279 58.3962 124.277 53.9904 124.462 53.1735L124.474 53.1208C124.487 53.0666 124.493 53.0386 124.493 53.0386H130.76L123.51 78.8841V91.2949H117.325V78.9251H117.284L110.116 53.0386H116.383ZM137.846 67.1697C136.986 67.1697 136.412 67.6202 136.044 68.5623C135.675 69.5044 135.511 70.938 135.511 72.945V81.6694C135.511 83.7174 135.675 85.2329 136.003 86.134C136.33 87.0351 136.945 87.4857 137.846 87.4857C138.706 87.4857 139.32 87.0351 139.689 86.134C140.058 85.2329 140.222 83.7174 140.222 81.6694V72.945C140.222 70.938 140.058 69.4634 139.689 68.5623C139.32 67.6202 138.706 67.1697 137.846 67.1697ZM210.099 67.9889C209.6 68.4497 209.244 69.0185 209.033 69.729L208.993 69.873V85.7654C209.501 86.6255 210.222 87.199 211.491 87.2399C212.147 87.2399 212.679 86.9942 213.089 86.5027C213.498 86.0111 213.785 85.1919 213.949 84.0451C214.106 82.9441 214.188 81.4278 214.194 79.4964L214.195 79.2528V75.6074C214.195 73.3955 214.113 71.7162 213.99 70.5284C213.826 69.3405 213.621 68.4804 213.253 67.9889C212.54 66.9649 211 66.9772 210.099 67.9889ZM231.767 67.0468C231.07 67.0878 230.579 67.2926 230.292 67.6612C229.964 68.0708 229.76 68.6852 229.637 69.5863C229.516 70.4694 229.474 73.5554 229.473 73.6785L229.473 75.6893H234.06L234.06 73.9159L234.06 73.9501C234.058 74.57 234.045 73.5902 234.016 72.3874L234.013 72.2259C233.987 71.1687 233.949 69.99 233.896 69.5863C233.774 68.6442 233.569 67.9889 233.241 67.6202C232.913 67.2516 232.422 67.0468 231.767 67.0468Z" fill="white"/>
</g>
<defs>
<clipPath id="clip0_73_236">
<rect width="200" height="45.3125" fill="white" transform="translate(40 49.8438)"/>
</clipPath>
</defs>
</svg>
