<svg width="280" height="145" viewBox="0 0 280 145" fill="none" xmlns="http://www.w3.org/2000/svg">
<g clip-path="url(#clip0_73_220)">
<path d="M46.5527 78.8191C46.5527 81.157 47.0612 82.9519 47.7257 84.0378C48.597 85.46 49.8966 86.0626 51.2215 86.0626C52.9304 86.0626 54.4937 85.6346 57.5063 81.4295C59.9198 78.059 62.7637 73.328 64.6772 70.362L67.9177 65.3372C70.1688 61.8475 72.7743 57.9681 75.7616 55.3386C78.2004 53.1923 80.8312 52 83.4789 52C87.924 52 92.1582 54.5997 95.3987 59.4755C98.9451 64.8155 100.667 71.5416 100.667 78.4827C100.667 82.6091 99.8608 85.641 98.4895 88.0364C97.1646 90.3529 94.5823 92.6673 90.2384 92.6673V86.0626C93.9578 86.0626 94.8861 82.6133 94.8861 78.6658C94.8861 73.0405 93.5865 66.7978 90.7236 62.3372C88.692 59.1732 86.0591 57.2399 83.1624 57.2399C80.0295 57.2399 77.5084 59.6246 74.6751 63.8766C73.1688 66.1356 71.6224 68.8886 69.8861 71.9951L67.9747 75.4125C64.135 82.2833 63.1624 83.8483 61.2426 86.431C57.8776 90.9533 55.0042 92.6673 51.2215 92.6673C46.7342 92.6673 43.8966 90.7063 42.1392 87.751C40.7046 85.3429 40 82.1832 40 78.5828L46.5527 78.8191Z" fill="white"/>
<path d="M45.1667 59.9418C48.171 55.2683 52.5064 52 57.479 52C60.3587 52 63.2216 52.8602 66.2111 55.3236C69.4811 58.0171 72.9663 62.4521 77.3144 69.7616L78.8735 72.3848C82.6372 78.7127 84.7786 81.9682 86.0317 83.5033C87.6435 85.4749 88.7722 86.0626 90.2385 86.0626C93.9579 86.0626 94.8862 82.6133 94.8862 78.6658L100.667 78.4827C100.667 82.6091 99.8608 85.641 98.4895 88.0364C97.1646 90.3529 94.5824 92.6673 90.2385 92.6673C87.5381 92.6673 85.1457 92.0754 82.5001 89.5566C80.4663 87.6233 78.0887 84.1889 76.2596 81.1016L70.8186 71.9291C68.0887 67.3258 65.5845 63.8936 64.1351 62.3393C62.576 60.6679 60.5718 58.6494 57.3735 58.6494C54.7849 58.6494 52.5866 60.4826 50.7469 63.2868L45.1667 59.9418Z" fill="white"/>
<path d="M57.3734 58.6494C54.7848 58.6494 52.5865 60.4826 50.7468 63.2868C48.1456 67.2492 46.5527 73.1513 46.5527 78.8191C46.5527 81.157 47.0612 82.9519 47.7257 84.0378L42.1392 87.751C40.7046 85.3429 40 82.1832 40 78.5828C40 72.0356 41.7806 65.2116 45.1667 59.9418C48.1709 55.2683 52.5063 52 57.4789 52L57.3734 58.6494Z" fill="white"/>
<path d="M113.405 53.2861H120.985L133.873 76.8178L146.764 53.2861H154.179V91.952H147.996V62.3181L136.692 82.8391H130.89L119.589 62.3181V91.952H113.405V53.2861ZM173.555 67.7028C169.12 67.7028 166.449 71.0712 165.81 75.2422H180.861C180.551 70.9455 178.095 67.7028 173.555 67.7028ZM159.679 77.6184C159.679 68.8419 165.3 62.4544 173.662 62.4544C181.888 62.4544 186.8 68.761 186.8 78.0868V79.8008H165.81C166.555 84.3381 169.538 87.3956 174.348 87.3956C178.186 87.3956 180.584 86.2139 182.859 84.0528L186.143 88.1131C183.048 90.9854 179.112 92.6419 174.129 92.6419C165.076 92.6419 159.679 85.9797 159.679 77.6184ZM194.297 68.2564H188.605V63.1464H194.297V54.6956H200.264V63.1464H208.911V68.2564H200.264V81.2082C200.264 85.6305 201.665 87.2018 205.108 87.2018C206.679 87.2018 207.58 87.0656 208.911 86.842V91.8967C207.253 92.3693 205.671 92.5865 203.958 92.5865C197.517 92.5865 194.297 89.035 194.297 81.9257V68.2564ZM234.034 73.2259C232.835 70.1727 230.162 67.9242 226.234 67.9242C221.129 67.9242 217.861 71.58 217.861 77.5354C217.861 83.3416 220.869 87.1741 225.989 87.1741C230.015 87.1741 232.888 84.8108 234.034 81.8704V73.2259ZM240 91.952H234.143V87.9194C232.506 90.2934 229.527 92.6419 224.702 92.6419C216.943 92.6419 211.757 86.0861 211.757 77.5354C211.757 68.9037 217.067 62.4544 225.032 62.4544C228.968 62.4544 232.057 64.0427 234.143 66.8469V63.1464H240V91.952Z" fill="white"/>
</g>
<defs>
<clipPath id="clip0_73_220">
<rect width="200" height="41" fill="white" transform="translate(40 52)"/>
</clipPath>
</defs>
</svg>
