<svg width="63" height="63" viewBox="0 0 63 63" fill="none" xmlns="http://www.w3.org/2000/svg">
<g clip-path="url(#clip0_4150_19)">
<path fill-rule="evenodd" clip-rule="evenodd" d="M32.1768 1.2002C40.7771 6.53367 49.3222 11.9847 57.8122 17.5537C55.3722 19.2539 52.8674 20.8746 50.2984 22.4156C44.3315 18.5851 38.3647 14.7544 32.3978 10.924C26.3278 14.674 20.2873 18.4678 14.2762 22.3051C22.9687 27.9774 31.6613 33.6494 40.3536 39.3217C37.7753 40.9056 35.1972 42.4892 32.6188 44.0731C25.0608 39.2044 17.4734 34.3794 9.85635 29.5979C6.98209 26.6088 6.13502 23.1098 7.31491 19.1007C7.75778 17.9221 8.38386 16.8541 9.19336 15.8963C16.9063 11.0474 24.5673 6.1487 32.1768 1.2002Z" fill="white"/>
<path fill-rule="evenodd" clip-rule="evenodd" d="M32.1772 18.2158C32.5767 18.2138 32.9451 18.3243 33.2822 18.5473C35.6757 20.1495 38.1067 21.6965 40.575 23.1882C37.975 24.8746 35.3597 26.5321 32.7297 28.1606C29.9226 26.5537 27.1602 24.8596 24.4424 23.0777C27.0296 21.4437 29.6077 19.8231 32.1772 18.2158Z" fill="#10B981"/>
<path fill-rule="evenodd" clip-rule="evenodd" d="M43.8894 26.1729C44.7471 26.4544 45.5575 26.8595 46.3204 27.3883C49.4702 29.4604 52.601 31.5598 55.7126 33.6867C58.5336 37.6498 58.681 41.7013 56.1546 45.8414C55.6021 46.3939 55.0497 46.9463 54.4972 47.4988C47.1456 51.9786 39.8528 56.5459 32.6187 61.2005C23.9809 55.9625 15.436 50.5114 6.9834 44.8469C9.47268 43.1786 12.0141 41.595 14.6077 40.0955C20.5745 43.8524 26.5414 47.6093 32.5082 51.3662C38.6377 47.6568 44.7151 43.8632 50.7403 39.985C46.0914 36.9985 41.4505 34.0151 36.8176 31.0347C39.1814 29.412 41.5385 27.7912 43.8894 26.1729Z" fill="white"/>
</g>
<defs>
<clipPath id="clip0_4150_19">
<rect width="52" height="61" fill="white" transform="translate(6 1)"/>
</clipPath>
</defs>
</svg>
