<svg width="52" height="61" viewBox="0 0 52 61" fill="none" xmlns="http://www.w3.org/2000/svg">
<path fill-rule="evenodd" clip-rule="evenodd" d="M26.177 0.199951C34.7773 5.53343 43.3224 10.9845 51.8124 16.5535C49.3724 18.2537 46.8676 19.8744 44.2986 21.4154C38.3317 17.5849 32.3649 13.7542 26.398 9.92371C20.328 13.6738 14.2875 17.4676 8.27648 21.3049C16.9689 26.9772 25.6615 32.6492 34.3538 38.3215C31.7755 39.9054 29.1974 41.489 26.619 43.0729C19.061 38.2042 11.4736 33.3792 3.85659 28.5977C0.982334 25.6086 0.135262 22.1096 1.31515 18.1005C1.75802 16.9219 2.3841 15.8539 3.1936 14.8961C10.9065 10.0472 18.5675 5.14846 26.177 0.199951Z" fill="white"/>
<path fill-rule="evenodd" clip-rule="evenodd" d="M26.1769 17.2163C26.5764 17.2143 26.9448 17.3248 27.2819 17.5478C29.6754 19.15 32.1064 20.697 34.5747 22.1887C31.9747 23.8751 29.3594 25.5326 26.7294 27.1611C23.9223 25.5542 21.1599 23.8601 18.4421 22.0782C21.0293 20.4442 23.6074 18.8236 26.1769 17.2163Z" fill="#10B981"/>
<path fill-rule="evenodd" clip-rule="evenodd" d="M37.8898 25.1724C38.7475 25.4539 39.5579 25.859 40.3208 26.3878C43.4706 28.4599 46.6014 30.5593 49.713 32.6862C52.534 36.6493 52.6814 40.7008 50.155 44.8409C49.6025 45.3934 49.0501 45.9458 48.4976 46.4983C41.146 50.9781 33.8532 55.5454 26.6191 60.2C17.9813 54.962 9.43636 49.5109 0.983765 43.8464C3.47305 42.1781 6.01448 40.5945 8.60807 39.095C14.5749 42.8519 20.5418 46.6088 26.5086 50.3657C32.6381 46.6563 38.7155 42.8627 44.7407 38.9845C40.0918 35.998 35.4509 33.0146 30.818 30.0342C33.1818 28.4115 35.5389 26.7907 37.8898 25.1724Z" fill="white"/>
</svg>
