<svg width="160" height="49" viewBox="0 0 160 49" fill="none" xmlns="http://www.w3.org/2000/svg">
<path d="M55.3833 38.1748V29.4885L47.8232 17.5359H52.7084L57.5655 25.7014L62.324 17.5359H67.1247L59.5365 29.5166V38.1748H55.3833Z" fill="white"/>
<path d="M69.2365 38.1748V17.5359H73.2911L81.7381 31.3186V17.5359H85.6097V38.1748H81.4284L73.1081 24.7159V38.1748H69.2365Z" fill="white"/>
<path d="M108.642 38.1748H104.109L102.307 33.4867H94.0567L92.3532 38.1748H87.9326L95.9714 17.5359H100.378L108.642 38.1748ZM100.969 30.0094L98.1254 22.3507L95.3379 30.0094H100.969Z" fill="white"/>
<path d="M110.979 38.1748V17.7048H115.146V34.6975H125.508V38.1748H110.979Z" fill="white"/>
<path d="M131.266 38.1748V29.4885L123.706 17.5359H128.591L133.448 25.7014L138.207 17.5359H143.007L135.419 29.5166V38.1748H131.266Z" fill="white"/>
<path d="M149.723 38.1748V21.0273H143.599V17.5359H160V21.0273H153.89V38.1748H149.723Z" fill="white"/>
<path d="M20.6372 0.103149C27.6312 4.44048 34.5803 8.87341 41.4846 13.4023C39.5003 14.7849 37.4634 16.103 35.3741 17.3561C30.5218 14.2411 25.6693 11.1258 20.8169 8.01077C15.8806 11.0604 10.9684 14.1456 6.08003 17.2663C13.1489 21.8791 20.2179 26.4918 27.2868 31.1046C25.19 32.3926 23.0934 33.6805 20.9967 34.9686C14.8503 31.0092 8.68002 27.0854 2.48566 23.197C0.148239 20.7661 -0.540622 17.9206 0.418895 14.6604C0.779051 13.7019 1.28819 12.8333 1.9465 12.0544C8.21886 8.11123 14.449 4.12741 20.6372 0.103149Z" fill="white"/>
<path d="M20.6373 13.9414C20.9622 13.9398 21.2618 14.0297 21.5358 14.211C23.4824 15.514 25.4593 16.772 27.4666 17.9851C25.3522 19.3565 23.2254 20.7044 21.0866 22.0288C18.8038 20.722 16.5573 19.3443 14.3471 17.8952C16.4511 16.5664 18.5477 15.2485 20.6373 13.9414Z" fill="#10B981"/>
<path d="M30.1623 20.4114C30.8598 20.6403 31.5188 20.9698 32.1392 21.3998C34.7008 23.0849 37.2468 24.7922 39.7773 26.5218C42.0714 29.7447 42.1912 33.0395 40.1367 36.4063C39.6874 36.8556 39.2381 37.3049 38.7888 37.7542C32.8103 41.3973 26.8796 45.1115 20.9967 48.8968C13.9722 44.6371 7.0232 40.2041 0.149323 35.5976C2.17367 34.2409 4.24044 32.953 6.34961 31.7336C11.202 34.7889 16.0544 37.8441 20.9068 40.8993C25.8915 37.8827 30.8338 34.7977 35.7336 31.6438C31.953 29.2151 28.1789 26.7889 24.4113 24.3652C26.3336 23.0455 28.2505 21.7275 30.1623 20.4114Z" fill="white"/>
</svg>
