<svg width="32" height="32" viewBox="0 0 32 32" fill="none" xmlns="http://www.w3.org/2000/svg">
<path d="M22.68 16.9734C23.4679 16.9734 24.1066 16.3346 24.1066 15.5467C24.1066 14.7588 23.4679 14.1201 22.68 14.1201C21.8921 14.1201 21.2533 14.7588 21.2533 15.5467C21.2533 16.3346 21.8921 16.9734 22.68 16.9734Z" stroke="white" stroke-width="2" stroke-linecap="round" stroke-linejoin="round"/>
<path d="M26.6667 7.99984V10.3865C26.3333 10.3465 25.9466 10.3198 25.5333 10.3198H19.8267C16.9733 10.3198 16.0266 11.2665 16.0266 14.1199V20.9332H7.99999C3.73332 20.9332 2.66666 19.8665 2.66666 15.5999V7.99984C2.66666 3.73317 3.73332 2.6665 7.99999 2.6665H21.3333C25.6 2.6665 26.6667 3.73317 26.6667 7.99984Z" stroke="white" stroke-width="2" stroke-linecap="round" stroke-linejoin="round"/>
<path d="M12 20.9336V26.6669" stroke="white" stroke-width="2" stroke-linecap="round" stroke-linejoin="round"/>
<path d="M2.66666 15.8667H16" stroke="white" stroke-width="2" stroke-linecap="round" stroke-linejoin="round"/>
<path d="M7.93335 26.6665H16" stroke="white" stroke-width="2" stroke-linecap="round" stroke-linejoin="round"/>
<path d="M22.68 16.9734C23.4679 16.9734 24.1066 16.3346 24.1066 15.5467C24.1066 14.7588 23.4679 14.1201 22.68 14.1201C21.8921 14.1201 21.2533 14.7588 21.2533 15.5467C21.2533 16.3346 21.8921 16.9734 22.68 16.9734Z" stroke="white" stroke-width="2" stroke-miterlimit="10" stroke-linecap="round" stroke-linejoin="round"/>
<path d="M26.6667 10.3865C26.3333 10.3465 25.9466 10.3198 25.5333 10.3198H19.8267C16.9733 10.3198 16.0266 11.2665 16.0266 14.1199V25.5332C16.0266 28.3865 16.9733 29.3332 19.8267 29.3332H25.5333C28.3866 29.3332 29.3333 28.3865 29.3333 25.5332V14.1199C29.3333 11.6799 28.64 10.6398 26.6667 10.3865ZM22.68 14.1199C23.4667 14.1199 24.1066 14.7598 24.1066 15.5465C24.1066 16.3331 23.4667 16.9731 22.68 16.9731C21.8933 16.9731 21.2533 16.3331 21.2533 15.5465C21.2533 14.7598 21.8933 14.1199 22.68 14.1199ZM22.68 25.5332C21.1067 25.5332 19.8267 24.2532 19.8267 22.6799C19.8267 22.0265 20.0533 21.4132 20.4267 20.9332C20.9467 20.2665 21.76 19.8265 22.68 19.8265C23.4 19.8265 24.0533 20.0932 24.5467 20.5199C25.1467 21.0532 25.5333 21.8265 25.5333 22.6799C25.5333 24.2532 24.2533 25.5332 22.68 25.5332Z" stroke="white" stroke-width="2" stroke-miterlimit="10" stroke-linecap="round" stroke-linejoin="round"/>
<path d="M25.5333 22.68C25.5333 24.2533 24.2533 25.5334 22.68 25.5334C21.1067 25.5334 19.8267 24.2533 19.8267 22.68C19.8267 22.0267 20.0533 21.4133 20.4267 20.9333C20.9467 20.2667 21.76 19.8267 22.68 19.8267C23.4 19.8267 24.0533 20.0934 24.5467 20.52C25.1467 21.0534 25.5333 21.8267 25.5333 22.68Z" stroke="white" stroke-width="2" stroke-miterlimit="10" stroke-linecap="round" stroke-linejoin="round"/>
<path d="M22.68 16.9734C23.4679 16.9734 24.1066 16.3346 24.1066 15.5467C24.1066 14.7588 23.4679 14.1201 22.68 14.1201C21.8921 14.1201 21.2533 14.7588 21.2533 15.5467C21.2533 16.3346 21.8921 16.9734 22.68 16.9734Z" stroke="white" stroke-width="2" stroke-miterlimit="10" stroke-linecap="round" stroke-linejoin="round"/>
</svg>
