<svg width="32" height="32" viewBox="0 0 32 32" fill="none" xmlns="http://www.w3.org/2000/svg">
<mask id="path-1-inside-1_271_172" fill="white">
<path d="M24.3338 18.9537C24.7707 18.9537 25.2035 19.0397 25.6072 19.207C26.0109 19.3742 26.3777 19.6193 26.6867 19.9283C26.9957 20.2373 27.2408 20.6041 27.4081 21.0078C27.5753 21.4116 27.6613 21.8443 27.6613 22.2812V23.6182C27.6616 24.4176 27.4889 25.2077 27.1553 25.9341C26.8217 26.6606 26.3349 27.3064 25.7284 27.8272C23.4139 29.8149 20.0996 30.7851 15.8255 30.7851C11.5514 30.7851 8.24156 29.8149 5.93148 27.8272C5.3258 27.3068 4.83967 26.6616 4.50631 25.936C4.17296 25.2103 4.00025 24.4212 4 23.6226V22.2798C4.00039 21.3975 4.35115 20.5515 4.97515 19.9278C5.59915 19.304 6.44531 18.9537 7.32758 18.9537H24.3338ZM24.3338 21.1721H7.32611C7.03193 21.1721 6.7498 21.2889 6.54179 21.4969C6.33377 21.7049 6.21691 21.9871 6.21691 22.2812V23.6226C6.21691 24.5913 6.64136 25.5127 7.37639 26.1457C9.23688 27.7459 12.0409 28.5667 15.8255 28.5667C19.6101 28.5667 22.4186 27.7429 24.285 26.1412C24.6484 25.8287 24.9401 25.4413 25.1399 25.0056C25.3398 24.5699 25.4432 24.0961 25.443 23.6167V22.2783C25.443 21.9841 25.3261 21.702 25.1181 21.494C24.9101 21.286 24.6279 21.1691 24.3338 21.1691M15.8255 1.20654C16.0935 1.20655 16.3525 1.30362 16.5545 1.4798C16.7565 1.65598 16.8879 1.89934 16.9243 2.16489L16.9347 2.31574L16.9332 3.42345H22.1095C22.992 3.42345 23.8384 3.77404 24.4624 4.39808C25.0865 5.02212 25.437 5.86851 25.437 6.75104V13.4136C25.437 14.2961 25.0865 15.1425 24.4624 15.7666C23.8384 16.3906 22.992 16.7412 22.1095 16.7412H9.53858C8.65605 16.7412 7.80966 16.3906 7.18562 15.7666C6.56158 15.1425 6.21099 14.2961 6.21099 13.4136V6.75252C6.21099 6.31541 6.29711 5.88258 6.46443 5.47876C6.63175 5.07495 6.87699 4.70805 7.18614 4.39904C7.4953 4.09002 7.8623 3.84495 8.26619 3.67781C8.67008 3.51067 9.10295 3.42474 9.54006 3.42493L14.7163 3.42345V2.31574C14.7164 2.04748 14.8136 1.78833 14.9901 1.58629C15.1666 1.38426 15.4103 1.25302 15.6761 1.2169L15.8255 1.20654ZM22.1109 5.64332H9.54006C9.24588 5.64332 8.96375 5.76018 8.75574 5.9682C8.54772 6.17621 8.43086 6.45834 8.43086 6.75252V13.4136C8.43086 14.0259 8.92778 14.5228 9.54006 14.5228H22.1109C22.4051 14.5228 22.6872 14.4059 22.8953 14.1979C23.1033 13.9899 23.2201 13.7078 23.2201 13.4136V6.75252C23.2201 6.45834 23.1033 6.17621 22.8953 5.9682C22.6872 5.76018 22.4051 5.64332 22.1109 5.64332ZM12.4979 7.86171C12.7467 7.85175 12.9949 7.89216 13.2277 7.9805C13.4605 8.06884 13.6731 8.2033 13.8526 8.37581C14.0322 8.54832 14.175 8.75532 14.2726 8.9844C14.3702 9.21347 14.4205 9.4599 14.4205 9.70889C14.4205 9.95788 14.3702 10.2043 14.2726 10.4334C14.175 10.6625 14.0322 10.8695 13.8526 11.042C13.6731 11.2145 13.4605 11.3489 13.2277 11.4373C12.9949 11.5256 12.7467 11.566 12.4979 11.5561C12.0208 11.537 11.5696 11.334 11.2388 10.9897C10.9079 10.6454 10.7232 10.1864 10.7232 9.70889C10.7232 9.2314 10.9079 8.77242 11.2388 8.4281C11.5696 8.08377 12.0208 7.88081 12.4979 7.86171ZM19.1412 7.86171C19.39 7.85175 19.6383 7.89216 19.8711 7.9805C20.1039 8.06884 20.3164 8.2033 20.496 8.37581C20.6755 8.54832 20.8184 8.75532 20.916 8.9844C21.0135 9.21347 21.0638 9.4599 21.0638 9.70889C21.0638 9.95788 21.0135 10.2043 20.916 10.4334C20.8184 10.6625 20.6755 10.8695 20.496 11.042C20.3164 11.2145 20.1039 11.3489 19.8711 11.4373C19.6383 11.5256 19.39 11.566 19.1412 11.5561C18.6641 11.537 18.2129 11.334 17.8821 10.9897C17.5513 10.6454 17.3665 10.1864 17.3665 9.70889C17.3665 9.2314 17.5513 8.77242 17.8821 8.4281C18.2129 8.08377 18.6641 7.88081 19.1412 7.86171Z"/>
</mask>
<path d="M15.6776 1.21542L15.744 2.32262L15.8919 2.31375L15.8255 1.20654L15.7591 0.0993392L15.6112 0.108213L15.6776 1.21542ZM24.3338 18.9537V21.1721V18.9537ZM27.6613 22.2812H29.8797H27.6613ZM27.6613 23.6182H25.443V23.6188L27.6613 23.6182ZM25.7284 27.8272L24.2832 26.1442L24.2831 26.1443L25.7284 27.8272ZM5.93148 27.8272L7.37838 26.1456L7.37728 26.1447L5.93148 27.8272ZM4 23.6226H1.78161V23.6233L4 23.6226ZM4 22.2798L1.78161 22.2788V22.2798H4ZM7.32758 18.9537L7.32758 21.1721H7.32758V18.9537ZM6.21691 22.2812H3.99852H6.21691ZM7.37639 26.1457L5.92878 27.8267L5.92982 27.8276L7.37639 26.1457ZM24.285 26.1412L25.7297 27.8247L25.7313 27.8233L24.285 26.1412ZM25.443 23.6167H23.2246V23.6177L25.443 23.6167ZM15.8255 1.20654L15.8256 -1.01185L15.7488 -1.01185L15.6721 -1.00654L15.8255 1.20654ZM16.9243 2.16489L19.1375 2.013L19.1324 1.93783L19.1221 1.86319L16.9243 2.16489ZM16.9347 2.31574L19.1531 2.3187L19.1532 2.24119L19.1479 2.16385L16.9347 2.31574ZM16.9332 3.42345L14.7148 3.42049L14.7119 5.64184H16.9332V3.42345ZM25.437 13.4136H27.6554H25.437ZM9.53858 16.7412V18.9596V16.7412ZM6.21099 6.75252H8.42938V6.75252L6.21099 6.75252ZM9.54006 3.42493L9.53907 5.64332L9.54069 5.64332L9.54006 3.42493ZM14.7163 3.42345L14.7169 5.64184L16.9347 5.64121V3.42345H14.7163ZM14.7163 2.31574L12.4979 2.31524V2.31574H14.7163ZM15.6761 1.2169L15.5227 -0.996186L15.4498 -0.991131L15.3774 -0.981287L15.6761 1.2169ZM22.1109 5.64332V3.42493V5.64332ZM9.54006 5.64332V3.42493V5.64332ZM8.43086 6.75252H6.21247H8.43086ZM12.4979 7.86171L12.4092 5.6451L12.4979 7.86171ZM12.4979 11.5561L12.4092 13.7727L12.4979 11.5561ZM19.1412 7.86171L19.0525 5.6451L19.1412 7.86171ZM19.1412 11.5561L19.0525 13.7727L19.1412 11.5561ZM24.3338 18.9537V21.1721C24.4794 21.1721 24.6237 21.2007 24.7582 21.2565L25.6072 19.207L26.4561 17.1574C25.7832 16.8787 25.0621 16.7353 24.3338 16.7353V18.9537ZM25.6072 19.207L24.7582 21.2565C24.8928 21.3122 25.0151 21.3939 25.1181 21.4969L26.6867 19.9283L28.2554 18.3596C27.7404 17.8447 27.129 17.4361 26.4561 17.1574L25.6072 19.207ZM26.6867 19.9283L25.1181 21.4969C25.2211 21.5999 25.3028 21.7222 25.3585 21.8568L27.4081 21.0078L29.4576 20.1589C29.1789 19.486 28.7703 18.8746 28.2554 18.3596L26.6867 19.9283ZM27.4081 21.0078L25.3585 21.8568C25.4143 21.9913 25.443 22.1356 25.443 22.2812H27.6613H29.8797C29.8797 21.5529 29.7363 20.8318 29.4576 20.1589L27.4081 21.0078ZM27.6613 22.2812H25.443V23.6182H27.6613H29.8797V22.2812H27.6613ZM27.6613 23.6182L25.443 23.6188C25.4431 24.0984 25.3395 24.5724 25.1393 25.0083L27.1553 25.9341L29.1713 26.86C29.6383 25.8429 29.88 24.7368 29.8797 23.6176L27.6613 23.6182ZM27.1553 25.9341L25.1393 25.0083C24.9391 25.4442 24.6471 25.8317 24.2832 26.1442L25.7284 27.8272L27.1736 29.5103C28.0227 28.7811 28.7042 27.877 29.1713 26.86L27.1553 25.9341ZM25.7284 27.8272L24.2831 26.1443C22.5144 27.6632 19.7955 28.5667 15.8255 28.5667V30.7851V33.0035C20.4036 33.0035 24.3133 31.9666 27.1737 29.5102L25.7284 27.8272ZM15.8255 30.7851V28.5667C11.8554 28.5667 9.14205 27.6632 7.37838 26.1456L5.93148 27.8272L4.48458 29.5088C7.34107 31.9666 11.2474 33.0035 15.8255 33.0035V30.7851ZM5.93148 27.8272L7.37728 26.1447C7.01387 25.8324 6.72219 25.4453 6.52218 25.0099L4.50631 25.936L2.49045 26.862C2.95714 27.8779 3.63773 28.7811 4.48568 29.5098L5.93148 27.8272ZM4.50631 25.936L6.52218 25.0099C6.32217 24.5745 6.21854 24.1011 6.21839 23.6219L4 23.6226L1.78161 23.6233C1.78196 24.7413 2.02375 25.8461 2.49045 26.862L4.50631 25.936ZM4 23.6226H6.21839V22.2798H4H1.78161V23.6226H4ZM4 22.2798L6.21839 22.2808C6.21852 21.9867 6.33544 21.7047 6.54344 21.4968L4.97515 19.9278L3.40686 18.3588C2.36686 19.3983 1.78226 20.8083 1.78161 22.2788L4 22.2798ZM4.97515 19.9278L6.54344 21.4968C6.75144 21.2888 7.03349 21.1721 7.32758 21.1721L7.32758 18.9537L7.32758 16.7353C5.85713 16.7353 4.44686 17.3192 3.40686 18.3588L4.97515 19.9278ZM7.32758 18.9537V21.1721H24.3338V18.9537V16.7353H7.32758V18.9537ZM24.3338 21.1721V18.9537H7.32611V21.1721V23.3904H24.3338V21.1721ZM7.32611 21.1721V18.9537C6.44357 18.9537 5.59719 19.3042 4.97315 19.9283L6.54179 21.4969L8.11042 23.0656C7.90241 23.2736 7.62029 23.3904 7.32611 23.3904V21.1721ZM6.54179 21.4969L4.97315 19.9283C4.34911 20.5523 3.99852 21.3987 3.99852 22.2812H6.21691H8.4353C8.4353 22.5754 8.31844 22.8576 8.11042 23.0656L6.54179 21.4969ZM6.21691 22.2812H3.99852V23.6226H6.21691H8.4353V22.2812H6.21691ZM6.21691 23.6226H3.99852C3.99852 25.2407 4.70709 26.7746 5.92878 27.8267L7.37639 26.1457L8.82399 24.4647C8.57564 24.2508 8.4353 23.942 8.4353 23.6226H6.21691ZM7.37639 26.1457L5.92982 27.8276C8.35325 29.9119 11.7691 30.7851 15.8255 30.7851V28.5667V26.3483C12.3127 26.3483 10.1205 25.5798 8.82296 24.4638L7.37639 26.1457ZM15.8255 28.5667V30.7851C19.8841 30.7851 23.302 29.908 25.7297 27.8247L24.285 26.1412L22.8403 24.4578C21.5351 25.5778 19.3361 26.3483 15.8255 26.3483V28.5667ZM24.285 26.1412L25.7313 27.8233C26.3371 27.3023 26.8232 26.6567 27.1563 25.9305L25.1399 25.0056L23.1236 24.0807C23.0569 24.2259 22.9597 24.355 22.8386 24.4592L24.285 26.1412ZM25.1399 25.0056L27.1563 25.9305C27.4894 25.2043 27.6617 24.4147 27.6613 23.6157L25.443 23.6167L23.2246 23.6177C23.2246 23.7775 23.1902 23.9354 23.1236 24.0807L25.1399 25.0056ZM25.443 23.6167H27.6613V22.2783H25.443H23.2246V23.6167H25.443ZM25.443 22.2783H27.6613C27.6613 21.3958 27.3108 20.5494 26.6867 19.9253L25.1181 21.494L23.5494 23.0626C23.3414 22.8546 23.2246 22.5725 23.2246 22.2783H25.443ZM25.1181 21.494L26.6867 19.9253C26.0627 19.3013 25.2163 18.9507 24.3338 18.9507V21.1691V23.3875C24.0396 23.3875 23.7575 23.2706 23.5494 23.0626L25.1181 21.494ZM15.8255 1.20654L15.8254 3.42493C15.5574 3.42492 15.2984 3.32785 15.0964 3.15168L16.5545 1.4798L18.0126 -0.192076C17.4066 -0.720604 16.6297 -1.01181 15.8256 -1.01185L15.8255 1.20654ZM16.5545 1.4798L15.0964 3.15168C14.8944 2.97551 14.763 2.73214 14.7266 2.46659L16.9243 2.16489L19.1221 1.86319C19.0128 1.06654 18.6186 0.336447 18.0126 -0.192076L16.5545 1.4798ZM16.9243 2.16489L14.7112 2.31677L14.7215 2.46762L16.9347 2.31574L19.1479 2.16385L19.1375 2.013L16.9243 2.16489ZM16.9347 2.31574L14.7163 2.31277L14.7148 3.42049L16.9332 3.42345L19.1516 3.42642L19.1531 2.3187L16.9347 2.31574ZM16.9332 3.42345V5.64184H22.1095V3.42345V1.20506H16.9332V3.42345ZM22.1095 3.42345V5.64184C22.4036 5.64184 22.6858 5.7587 22.8938 5.96672L24.4624 4.39808L26.0311 2.82944C24.991 1.78937 23.5803 1.20506 22.1095 1.20506V3.42345ZM24.4624 4.39808L22.8938 5.96672C23.1018 6.17473 23.2187 6.45686 23.2187 6.75104H25.437H27.6554C27.6554 5.28015 27.0711 3.86951 26.0311 2.82944L24.4624 4.39808ZM25.437 6.75104H23.2187V13.4136H25.437H27.6554V6.75104H25.437ZM25.437 13.4136H23.2187C23.2187 13.7078 23.1018 13.9899 22.8938 14.1979L24.4624 15.7666L26.0311 17.3352C27.0711 16.2951 27.6554 14.8845 27.6554 13.4136H25.437ZM24.4624 15.7666L22.8938 14.1979C22.6858 14.4059 22.4036 14.5228 22.1095 14.5228V16.7412V18.9596C23.5803 18.9596 24.991 18.3753 26.0311 17.3352L24.4624 15.7666ZM22.1095 16.7412V14.5228H9.53858V16.7412V18.9596H22.1095V16.7412ZM9.53858 16.7412V14.5228C9.2444 14.5228 8.96227 14.4059 8.75426 14.1979L7.18562 15.7666L5.61698 17.3352C6.65706 18.3753 8.0677 18.9596 9.53858 18.9596V16.7412ZM7.18562 15.7666L8.75426 14.1979C8.54625 13.9899 8.42938 13.7078 8.42938 13.4136H6.21099H3.99261C3.99261 14.8845 4.57691 16.2951 5.61698 17.3352L7.18562 15.7666ZM6.21099 13.4136H8.42938V6.75252H6.21099H3.99261V13.4136H6.21099ZM6.21099 6.75252L8.42938 6.75252C8.42938 6.60681 8.45809 6.46254 8.51386 6.32793L6.46443 5.47876L4.415 4.6296C4.13614 5.30262 3.99261 6.024 3.99261 6.75252H6.21099ZM6.46443 5.47876L8.51386 6.32793C8.56964 6.19333 8.65138 6.07103 8.75443 5.96802L7.18614 4.39904L5.61786 2.83005C5.1026 3.34507 4.69387 3.95657 4.415 4.6296L6.46443 5.47876ZM7.18614 4.39904L8.75443 5.96802C8.85749 5.86502 8.97982 5.78333 9.11445 5.72761L8.26619 3.67781L7.41794 1.628C6.74478 1.90656 6.13311 2.31503 5.61786 2.83005L7.18614 4.39904ZM8.26619 3.67781L9.11445 5.72761C9.24908 5.6719 9.39337 5.64326 9.53907 5.64332L9.54006 3.42493L9.54104 1.20654C8.81253 1.20622 8.09109 1.34943 7.41794 1.628L8.26619 3.67781ZM9.54006 3.42493L9.54069 5.64332L14.7169 5.64184L14.7163 3.42345L14.7157 1.20506L9.53942 1.20654L9.54006 3.42493ZM14.7163 3.42345H16.9347V2.31574H14.7163H12.4979V3.42345H14.7163ZM14.7163 2.31574L16.9347 2.31624C16.9346 2.58449 16.8374 2.84364 16.6609 3.04568L14.9901 1.58629L13.3194 0.126907C12.7899 0.73302 12.4981 1.51047 12.4979 2.31524L14.7163 2.31574ZM14.9901 1.58629L16.6609 3.04568C16.4844 3.24772 16.2407 3.37895 15.9749 3.41508L15.6761 1.2169L15.3774 -0.981287C14.5799 -0.87291 13.8488 -0.479206 13.3194 0.126907L14.9901 1.58629ZM15.6761 1.2169L15.8295 3.42998L15.9789 3.41962L15.8255 1.20654L15.6721 -1.00654L15.5227 -0.996186L15.6761 1.2169ZM22.1109 5.64332V3.42493H9.54006V5.64332V7.86171H22.1109V5.64332ZM9.54006 5.64332V3.42493C8.65753 3.42493 7.81114 3.77552 7.1871 4.39956L8.75574 5.9682L10.3244 7.53684C10.1164 7.74485 9.83423 7.86171 9.54006 7.86171V5.64332ZM8.75574 5.9682L7.1871 4.39956C6.56306 5.0236 6.21247 5.86999 6.21247 6.75252H8.43086H10.6493C10.6493 7.04669 10.5324 7.32882 10.3244 7.53684L8.75574 5.9682ZM8.43086 6.75252H6.21247V13.4136H8.43086H10.6493V6.75252H8.43086ZM8.43086 13.4136H6.21247C6.21247 15.2511 7.7026 16.7412 9.54006 16.7412V14.5228V12.3044C10.153 12.3044 10.6493 12.8007 10.6493 13.4136H8.43086ZM9.54006 14.5228V16.7412H22.1109V14.5228V12.3044H9.54006V14.5228ZM22.1109 14.5228V16.7412C22.9935 16.7412 23.8398 16.3906 24.4639 15.7666L22.8953 14.1979L21.3266 12.6293C21.5346 12.4213 21.8168 12.3044 22.1109 12.3044V14.5228ZM22.8953 14.1979L24.4639 15.7666C25.0879 15.1425 25.4385 14.2961 25.4385 13.4136H23.2201H21.0017C21.0017 13.1194 21.1186 12.8373 21.3266 12.6293L22.8953 14.1979ZM23.2201 13.4136H25.4385V6.75252H23.2201H21.0017V13.4136H23.2201ZM23.2201 6.75252H25.4385C25.4385 5.86999 25.0879 5.02361 24.4639 4.39956L22.8953 5.9682L21.3266 7.53684C21.1186 7.32882 21.0017 7.04669 21.0017 6.75252H23.2201ZM22.8953 5.9682L24.4639 4.39956C23.8398 3.77551 22.9935 3.42493 22.1109 3.42493V5.64332V7.86171C21.8168 7.86171 21.5346 7.74485 21.3266 7.53684L22.8953 5.9682ZM12.4979 7.86171L12.5866 10.0783C12.5369 10.0803 12.4872 10.0722 12.4407 10.0546L13.2277 7.9805L14.0148 5.90643C13.5027 5.71208 12.9565 5.62319 12.4092 5.6451L12.4979 7.86171ZM13.2277 7.9805L12.4407 10.0546C12.3941 10.0369 12.3516 10.01 12.3157 9.97551L13.8526 8.37581L15.3896 6.77611C14.9946 6.39659 14.527 6.10078 14.0148 5.90643L13.2277 7.9805ZM13.8526 8.37581L12.3157 9.97551C12.2798 9.941 12.2512 9.8996 12.2317 9.85379L14.2726 8.9844L16.3136 8.115C16.0989 7.61104 15.7846 7.15563 15.3896 6.77611L13.8526 8.37581ZM14.2726 8.9844L12.2317 9.85379C12.2122 9.80797 12.2021 9.75869 12.2021 9.70889H14.4205H16.6389C16.6389 9.16111 16.5282 8.61897 16.3136 8.115L14.2726 8.9844ZM14.4205 9.70889H12.2021C12.2021 9.65909 12.2122 9.60981 12.2317 9.56399L14.2726 10.4334L16.3136 11.3028C16.5282 10.7988 16.6389 10.2567 16.6389 9.70889H14.4205ZM14.2726 10.4334L12.2317 9.56399C12.2512 9.51818 12.2798 9.47678 12.3157 9.44227L13.8526 11.042L15.3896 12.6417C15.7846 12.2621 16.0989 11.8067 16.3136 11.3028L14.2726 10.4334ZM13.8526 11.042L12.3157 9.44227C12.3516 9.40777 12.3941 9.38088 12.4407 9.36321L13.2277 11.4373L14.0148 13.5113C14.527 13.317 14.9946 13.0212 15.3896 12.6417L13.8526 11.042ZM13.2277 11.4373L12.4407 9.36321C12.4872 9.34555 12.5369 9.33746 12.5866 9.33946L12.4979 11.5561L12.4092 13.7727C12.9565 13.7946 13.5027 13.7057 14.0148 13.5113L13.2277 11.4373ZM12.4979 11.5561L12.5866 9.33946C12.6821 9.34327 12.7723 9.38387 12.8385 9.45273L11.2388 10.9897L9.63906 12.5266C10.3669 13.2842 11.3595 13.7307 12.4092 13.7727L12.4979 11.5561ZM11.2388 10.9897L12.8385 9.45273C12.9046 9.5216 12.9416 9.61339 12.9416 9.70889H10.7232H8.50479C8.50479 10.7594 8.91126 11.7691 9.63906 12.5266L11.2388 10.9897ZM10.7232 9.70889H12.9416C12.9416 9.80439 12.9046 9.89618 12.8385 9.96505L11.2388 8.4281L9.63906 6.89115C8.91126 7.64866 8.50479 8.6584 8.50479 9.70889H10.7232ZM11.2388 8.4281L12.8385 9.96505C12.7723 10.0339 12.6821 10.0745 12.5866 10.0783L12.4979 7.86171L12.4092 5.6451C11.3595 5.68711 10.3669 6.13363 9.63906 6.89115L11.2388 8.4281ZM19.1412 7.86171L19.23 10.0783C19.1802 10.0803 19.1306 10.0722 19.084 10.0546L19.8711 7.9805L20.6582 5.90643C20.146 5.71208 19.5999 5.62319 19.0525 5.6451L19.1412 7.86171ZM19.8711 7.9805L19.084 10.0546C19.0374 10.0369 18.9949 10.01 18.959 9.97551L20.496 8.37581L22.0329 6.77611C21.6379 6.39659 21.1703 6.10078 20.6582 5.90643L19.8711 7.9805ZM20.496 8.37581L18.959 9.97551C18.9231 9.94101 18.8945 9.89961 18.875 9.85379L20.916 8.9844L22.9569 8.115C22.7422 7.61103 22.4279 7.15563 22.0329 6.77611L20.496 8.37581ZM20.916 8.9844L18.875 9.85379C18.8555 9.80798 18.8455 9.75869 18.8455 9.70889H21.0638H23.2822C23.2822 9.1611 23.1716 8.61896 22.9569 8.115L20.916 8.9844ZM21.0638 9.70889H18.8455C18.8455 9.65909 18.8555 9.6098 18.875 9.56399L20.916 10.4334L22.9569 11.3028C23.1716 10.7988 23.2822 10.2567 23.2822 9.70889H21.0638ZM20.916 10.4334L18.875 9.56399C18.8945 9.51817 18.9231 9.47677 18.959 9.44227L20.496 11.042L22.0329 12.6417C22.4279 12.2622 22.7422 11.8068 22.9569 11.3028L20.916 10.4334ZM20.496 11.042L18.959 9.44227C18.9949 9.40777 19.0374 9.38088 19.084 9.36321L19.8711 11.4373L20.6582 13.5113C21.1703 13.317 21.6379 13.0212 22.0329 12.6417L20.496 11.042ZM19.8711 11.4373L19.084 9.36321C19.1306 9.34555 19.1802 9.33746 19.23 9.33946L19.1412 11.5561L19.0525 13.7727C19.5999 13.7946 20.146 13.7057 20.6582 13.5113L19.8711 11.4373ZM19.1412 11.5561L19.23 9.33946C19.3254 9.34327 19.4156 9.38387 19.4818 9.45273L17.8821 10.9897L16.2824 12.5266C17.0102 13.2841 18.0029 13.7307 19.0525 13.7727L19.1412 11.5561ZM17.8821 10.9897L19.4818 9.45273C19.548 9.5216 19.5849 9.61339 19.5849 9.70889H17.3665H15.1481C15.1481 10.7594 15.5546 11.7691 16.2824 12.5266L17.8821 10.9897ZM17.3665 9.70889H19.5849C19.5849 9.80439 19.548 9.89618 19.4818 9.96505L17.8821 8.4281L16.2824 6.89115C15.5546 7.64866 15.1481 8.6584 15.1481 9.70889H17.3665ZM17.8821 8.4281L19.4818 9.96505C19.4156 10.0339 19.3254 10.0745 19.23 10.0783L19.1412 7.86171L19.0525 5.6451C18.0029 5.68711 17.0102 6.13363 16.2824 6.89115L17.8821 8.4281Z" fill="white" mask="url(#path-1-inside-1_271_172)"/>
</svg>
