<svg width="32" height="32" viewBox="0 0 32 32" fill="none" xmlns="http://www.w3.org/2000/svg">
<path d="M2.66666 20V12C2.66666 9.87827 3.50951 7.84344 5.0098 6.34315C6.51009 4.84286 8.54492 4 10.6667 4H21.3333C23.4551 4 25.4899 4.84286 26.9902 6.34315C28.4905 7.84344 29.3333 9.87827 29.3333 12V20C29.3333 22.1217 28.4905 24.1566 26.9902 25.6569C25.4899 27.1571 23.4551 28 21.3333 28H10.6667C8.54492 28 6.51009 27.1571 5.0098 25.6569C3.50951 24.1566 2.66666 22.1217 2.66666 20Z" stroke="white" stroke-width="2"/>
<path d="M16 20V12H19.3333C19.8638 12 20.3725 12.2107 20.7475 12.5858C21.1226 12.9609 21.3333 13.4696 21.3333 14C21.3333 14.5304 21.1226 15.0391 20.7475 15.4142C20.3725 15.7893 19.8638 16 19.3333 16H16M12 12V20" stroke="white" stroke-width="2" stroke-linecap="round" stroke-linejoin="round"/>
</svg>
