<svg width="32" height="32" viewBox="0 0 32 32" fill="none" xmlns="http://www.w3.org/2000/svg">
<path d="M29.3333 17.3334V12.0001C29.3333 5.33341 26.6667 2.66675 20 2.66675H12C5.33332 2.66675 2.66666 5.33341 2.66666 12.0001V20.0001C2.66666 26.6667 5.33332 29.3334 12 29.3334H17.3333" stroke="white" stroke-width="2" stroke-linecap="round" stroke-linejoin="round"/>
<path d="M29.3333 17.3334V12.0001C29.3333 5.33341 26.6667 2.66675 20 2.66675H12C5.33332 2.66675 2.66666 5.33341 2.66666 12.0001V20.0001C2.66666 26.6667 5.33332 29.3334 12 29.3334H17.3333" stroke="white" stroke-width="2" stroke-linecap="round" stroke-linejoin="round"/>
<path d="M29.3333 17.3334V12.0001C29.3333 5.33341 26.6667 2.66675 20 2.66675H12C5.33332 2.66675 2.66666 5.33341 2.66666 12.0001V20.0001C2.66666 26.6667 5.33332 29.3334 12 29.3334H17.3333" stroke="white" stroke-width="2" stroke-linecap="round" stroke-linejoin="round"/>
<path d="M21.3333 25.9067L23.44 28.0001L28 22.6667" stroke="white" stroke-width="2" stroke-linecap="round" stroke-linejoin="round"/>
<path d="M9.33334 14V18" stroke="white" stroke-width="2" stroke-linecap="round" stroke-linejoin="round"/>
<path d="M16 14V18" stroke="white" stroke-width="2" stroke-linecap="round" stroke-linejoin="round"/>
<path d="M22.6667 14V18" stroke="white" stroke-width="2" stroke-linecap="round" stroke-linejoin="round"/>
</svg>
