<svg width="29" height="29" viewBox="0 0 29 29" fill="none" xmlns="http://www.w3.org/2000/svg">
<path d="M26.667 14.333C26.6668 7.52165 21.1444 2 14.333 2C7.52175 2.00018 2.00018 7.52175 2 14.333C2 21.1444 7.52165 26.6668 14.333 26.667C21.1445 26.667 26.667 21.1445 26.667 14.333ZM28.667 14.333C28.667 22.2491 22.2491 28.667 14.333 28.667C6.41708 28.6668 0 22.249 0 14.333C0.000175501 6.41718 6.41718 0.00017549 14.333 0C22.249 0 28.6668 6.41708 28.667 14.333Z" fill="#09001F"/>
<path d="M18.3335 11.9453C18.7246 11.5554 19.3576 11.5564 19.7476 11.9473C20.1376 12.3384 20.1367 12.9714 19.7456 13.3614L15.0396 18.0547C14.6493 18.4439 14.0178 18.4437 13.6275 18.0547L8.92044 13.3614C8.52939 12.9714 8.52853 12.3384 8.91849 11.9473C9.30846 11.5562 9.94148 11.5554 10.3326 11.9453L14.3326 15.9346L18.3335 11.9453Z" fill="#09001F"/>
</svg>
