<svg width="22" height="22" viewBox="0 0 22 22" fill="none" xmlns="http://www.w3.org/2000/svg">
<path d="M20.25 11C20.25 5.91421 16.0858 1.75 11 1.75C5.91421 1.75 1.75 5.91421 1.75 11C1.75 16.0858 5.91421 20.25 11 20.25C16.0858 20.25 20.25 16.0858 20.25 11ZM21.75 11C21.75 16.9142 16.9142 21.75 11 21.75C5.08579 21.75 0.25 16.9142 0.25 11C0.25 5.08579 5.08579 0.25 11 0.25C16.9142 0.25 21.75 5.08579 21.75 11Z" fill="#09001F"/>
<path d="M13.2998 7.63967C13.5927 7.34686 14.0675 7.34681 14.3604 7.63967C14.6532 7.93255 14.6532 8.40735 14.3604 8.70022L8.70022 14.3604C8.40735 14.6532 7.93255 14.6532 7.63967 14.3604C7.34681 14.0675 7.34686 13.5927 7.63967 13.2998L13.2998 7.63967Z" fill="#09001F"/>
<path d="M7.63959 7.63959C7.93249 7.3467 8.40725 7.3467 8.70014 7.63959L14.3603 13.2997C14.653 13.5927 14.6531 14.0675 14.3603 14.3603C14.0675 14.6531 13.5927 14.653 13.2997 14.3603L7.63959 8.70014C7.3467 8.40725 7.3467 7.93249 7.63959 7.63959Z" fill="#09001F"/>
</svg>
