<svg width="28" height="28" viewBox="0 0 28 28" fill="none" xmlns="http://www.w3.org/2000/svg">
<path d="M8.20176 0.105832C6.71216 0.176065 5.69495 0.413832 4.8056 0.763132C3.88533 1.12188 3.10518 1.60313 2.329 2.38212C1.55293 3.1611 1.07483 3.94172 0.718762 4.86362C0.374129 5.75471 0.140562 6.77287 0.0747619 8.26328C0.00896185 9.7537 -0.00562148 10.2328 0.00172852 14.0348C0.00896185 17.8365 0.0257619 18.3131 0.0979785 19.8066C0.169145 21.2959 0.405979 22.3129 0.755395 23.2024C1.11473 24.1228 1.5954 24.9026 2.37473 25.679C3.15395 26.4555 3.93398 26.9324 4.85798 27.289C5.74838 27.6332 6.76676 27.8678 8.25695 27.933C9.74713 27.9984 10.2267 28.0135 14.0275 28.0062C17.8283 27.999 18.3068 27.982 19.7999 27.9112C21.2933 27.8404 22.3048 27.6018 23.1947 27.254C24.1151 26.894 24.8955 26.414 25.6713 25.6346C26.4471 24.855 26.9249 24.0738 27.2807 23.1515C27.6257 22.2611 27.8601 21.2428 27.9247 19.7537C27.9901 18.2593 28.0055 17.7822 27.9982 13.981C27.9909 10.1796 27.9737 9.70307 27.9029 8.21008C27.8321 6.7171 27.5949 5.70327 27.2457 4.8131C26.8859 3.89271 26.4057 3.1135 25.6269 2.3365C24.8479 1.5595 24.066 1.0821 23.1441 0.727082C22.253 0.382332 21.2353 0.147482 19.7451 0.0830821C18.2549 0.0186821 17.7753 0.00199876 13.9731 0.00946542C10.171 0.0166988 9.69498 0.0330321 8.20176 0.105832ZM8.36533 25.4144C7.00033 25.3551 6.25915 25.1283 5.76518 24.9384C5.11115 24.6864 4.64518 24.3818 4.15296 23.8943C3.66063 23.4068 3.35835 22.9392 3.10296 22.2866C2.91116 21.7926 2.68016 21.0523 2.61635 19.6873C2.54693 18.212 2.53235 17.769 2.52418 14.0313C2.51601 10.2936 2.53036 9.85111 2.595 8.37528C2.65333 7.01145 2.88153 6.26945 3.071 5.77572C3.323 5.12087 3.62656 4.65571 4.11516 4.16385C4.60376 3.67186 5.06996 3.36888 5.72318 3.1135C6.21668 2.92088 6.95693 2.69187 8.32135 2.62688C9.79776 2.55688 10.2402 2.54288 13.9773 2.53472C17.7145 2.52655 18.1581 2.54055 19.6351 2.60565C20.9989 2.66492 21.7413 2.8909 22.2344 3.08165C22.8887 3.33365 23.3544 3.63628 23.8463 4.12582C24.3383 4.61512 24.6415 5.07968 24.8969 5.7343C25.0897 6.22628 25.3189 6.9663 25.3833 8.33165C25.4535 9.80806 25.4695 10.2508 25.4761 13.9876C25.4829 17.7245 25.4697 18.1683 25.405 19.6436C25.3455 21.0086 25.1191 21.7501 24.929 22.2446C24.677 22.8984 24.3733 23.3646 23.8843 23.8562C23.3955 24.348 22.9299 24.6509 22.2763 24.9062C21.7835 25.0986 21.0423 25.3282 19.6791 25.3932C18.2025 25.4626 17.7601 25.4772 14.0216 25.4854C10.283 25.4935 9.84175 25.4784 8.36533 25.4144ZM19.7785 6.5253C19.779 6.8576 19.8781 7.18227 20.0632 7.45825C20.2483 7.73424 20.5111 7.94913 20.8183 8.07575C21.1256 8.20237 21.4634 8.23504 21.7892 8.16961C22.115 8.10419 22.4141 7.94362 22.6486 7.7082C22.8832 7.47279 23.0426 7.17311 23.1068 6.84707C23.171 6.52103 23.1371 6.18327 23.0093 5.87652C22.8815 5.56976 22.6657 5.30779 22.389 5.12373C22.1123 4.93968 21.7873 4.84181 21.455 4.8425C21.0095 4.84343 20.5827 5.02122 20.2683 5.33679C19.9539 5.65235 19.7777 6.07986 19.7785 6.5253ZM6.81156 14.0218C6.81938 17.9922 10.0439 21.2035 14.0134 21.196C17.9831 21.1884 21.1966 17.9642 21.1891 13.9938C21.1815 10.0234 17.9563 6.81125 13.9861 6.81907C10.0159 6.82688 6.8041 10.0519 6.81156 14.0218ZM9.33331 14.0168C9.33149 13.0938 9.6034 12.1911 10.1147 11.4226C10.6259 10.6542 11.3536 10.0546 12.2056 9.69971C13.0576 9.34482 13.9957 9.25055 14.9013 9.42881C15.8069 9.60708 16.6393 10.0499 17.2932 10.7012C17.9472 11.3526 18.3933 12.1832 18.5751 13.0881C18.757 13.993 18.6665 14.9314 18.315 15.7849C17.9635 16.6383 17.3668 17.3683 16.6004 17.8826C15.834 18.3969 14.9323 18.6724 14.0093 18.6743C13.3965 18.6756 12.7893 18.5561 12.2226 18.3227C11.656 18.0893 11.1408 17.7466 10.7066 17.3141C10.2723 16.8816 9.92758 16.3678 9.69195 15.8021C9.45633 15.2363 9.33446 14.6297 9.33331 14.0168Z" fill="#8A8F98"/>
</svg>
