<svg width="22" height="22" viewBox="0 0 22 22" fill="none" xmlns="http://www.w3.org/2000/svg">
<path d="M20.25 11C20.25 5.89137 16.1086 1.75 11 1.75C5.89137 1.75 1.75 5.89137 1.75 11C1.75 16.1086 5.89137 20.25 11 20.25C16.1086 20.25 20.25 16.1086 20.25 11ZM21.75 11C21.75 16.9371 16.9371 21.75 11 21.75C5.06294 21.75 0.25 16.9371 0.25 11C0.25 5.06294 5.06294 0.25 11 0.25C16.9371 0.25 21.75 5.06294 21.75 11Z" fill="#8A8F98"/>
<path d="M8.0004 1.25C8.2414 1.25013 8.46792 1.36596 8.60879 1.56152C8.74968 1.75713 8.78762 2.00864 8.71133 2.2373C6.81281 7.92313 6.81281 14.0769 8.71133 19.7627C8.78762 19.9914 8.74968 20.2429 8.60879 20.4385C8.46792 20.634 8.2414 20.7499 8.0004 20.75H7.0004C6.58618 20.75 6.2504 20.4142 6.2504 20C6.2504 19.5928 6.57446 19.2622 6.97891 19.251C5.39074 13.866 5.39057 8.13299 6.97891 2.74805C6.57447 2.73685 6.2504 2.40714 6.2504 2C6.2504 1.58579 6.58618 1.25 7.0004 1.25H8.0004Z" fill="#8A8F98"/>
<path d="M13.7627 1.28906C14.1556 1.15792 14.5798 1.36983 14.7109 1.76269C16.7124 7.75682 16.7124 14.2432 14.7109 20.2373C14.5798 20.6302 14.1556 20.8421 13.7627 20.7109C13.3698 20.5798 13.1579 20.1556 13.2891 19.7627C15.1876 14.0769 15.1876 7.92313 13.2891 2.2373C13.1579 1.84443 13.3698 1.42024 13.7627 1.28906Z" fill="#8A8F98"/>
<path d="M19.7627 13.289C19.9914 13.2127 20.2428 13.2506 20.4385 13.3916C20.6341 13.5325 20.75 13.7589 20.75 14V15C20.75 15.4142 20.4142 15.75 20 15.75C19.5927 15.75 19.2619 15.4252 19.251 15.0205C13.8659 16.6087 8.13309 16.6089 2.74805 15.0205C2.73716 15.4252 2.40734 15.75 2 15.75C1.58579 15.75 1.25 15.4142 1.25 15V14C1.25 13.7589 1.36594 13.5325 1.56152 13.3916C1.75717 13.2506 2.00859 13.2127 2.2373 13.289C7.92313 15.1876 14.0769 15.1876 19.7627 13.289Z" fill="#8A8F98"/>
<path d="M1.76271 7.2885C7.75673 5.28713 14.2433 5.28713 20.2373 7.2885C20.6302 7.41969 20.8421 7.84483 20.711 8.23772C20.5797 8.63037 20.1555 8.84238 19.7627 8.71135C14.0769 6.81283 7.92315 6.81283 2.23732 8.71135C1.84458 8.84238 1.42035 8.63037 1.28908 8.23772C1.15789 7.84483 1.36982 7.41969 1.76271 7.2885Z" fill="#8A8F98"/>
</svg>
