<svg width="36" height="36" viewBox="0 0 36 36" fill="none" xmlns="http://www.w3.org/2000/svg">
<path d="M30.675 30.6749H25.341V22.32C25.341 20.328 25.305 17.763 22.566 17.763C19.788 17.763 19.362 19.935 19.362 22.173V30.6749H14.028V13.494H19.149V15.843H19.221C20.265 14.061 22.209 12.993 24.273 13.068C29.679 13.068 30.678 16.623 30.678 21.252L30.675 30.6719V30.6749ZM8.01 11.145C7.19062 11.1411 6.40588 10.814 5.82621 10.2349C5.24653 9.65581 4.91873 8.87139 4.914 8.05202C4.914 6.35402 6.312 4.95603 8.01 4.95603C9.708 4.95603 11.103 6.35402 11.106 8.05202C11.106 9.75001 9.708 11.145 8.01 11.145ZM10.677 30.6749H5.337V13.494H10.677V30.6749ZM33.33 4.45895e-05H2.655C1.95945 -0.00399528 1.29041 0.266622 0.793269 0.75309C0.296127 1.23956 0.011054 1.90257 0 2.59803V33.4019C0.011054 34.0974 0.296127 34.7604 0.793269 35.2469C1.29041 35.7333 1.95945 36.004 2.655 35.9999H33.333C34.0302 36.0056 34.7014 35.7358 35.2008 35.2494C35.7002 34.7629 35.9874 34.099 36 33.4019V2.59504C35.9874 1.89852 35.7 1.23523 35.2004 0.749708C34.7008 0.26419 34.0296 -0.00419474 33.333 0.00304436L33.33 4.45895e-05Z" fill="#E7E7E7"/>
</svg>
