<svg width="36" height="36" viewBox="0 0 36 36" fill="none" xmlns="http://www.w3.org/2000/svg">
<path fill-rule="evenodd" clip-rule="evenodd" d="M11.5567 1.49228C11.5335 1.2744 11.4675 1.06325 11.3626 0.870906C11.2576 0.678562 11.1158 0.508805 10.9452 0.37135C10.7746 0.233895 10.5786 0.131441 10.3683 0.069852C10.1581 0.00826281 9.93778 -0.0112525 9.72 0.012423C8.77808 0.117302 7.84771 0.22307 6.9289 0.329727L6.69164 0.356391C5.07062 0.546513 3.56136 1.27888 2.40872 2.43469C1.25609 3.59049 0.527684 5.10193 0.341685 6.7238C0.229721 7.71393 0.120423 8.71828 0.0137904 9.73685C-0.0147728 9.95752 0.00113564 10.1817 0.0605773 10.3961C0.120019 10.6105 0.22179 10.8109 0.359887 10.9853C0.497985 11.1598 0.669612 11.3048 0.864645 11.4118C1.05968 11.5189 1.27417 11.5858 1.49546 11.6086C1.71675 11.6314 1.94037 11.6096 2.15312 11.5446C2.36587 11.4795 2.56344 11.3725 2.73418 11.2299C2.90493 11.0872 3.04538 10.9118 3.14726 10.714C3.24915 10.5162 3.31039 10.3 3.32739 10.0781C3.43225 9.07913 3.54154 8.08367 3.65528 7.09176C3.75758 6.21932 4.15067 5.40678 4.77118 4.78516C5.39169 4.16354 6.20344 3.76909 7.07552 3.66541L7.31277 3.63875C8.22981 3.53209 9.15129 3.42721 10.0772 3.32411C10.2948 3.30084 10.5057 3.23493 10.6978 3.13014C10.8899 3.02535 11.0595 2.88374 11.1969 2.71339C11.3343 2.54304 11.4368 2.34728 11.4985 2.13731C11.5602 1.92733 11.58 1.70724 11.5567 1.48962M24.4406 1.48962C24.4638 1.27174 24.5298 1.06058 24.6348 0.86824C24.7397 0.675896 24.8815 0.506139 25.0521 0.368684C25.2227 0.231229 25.4188 0.128775 25.629 0.0671855C25.8392 0.00559635 26.0595 -0.0139189 26.2773 0.00975664C27.2193 0.114636 28.1496 0.220404 29.0684 0.32706L29.3057 0.353725C30.9267 0.543846 32.436 1.27621 33.5886 2.43202C34.7412 3.58783 35.4697 5.09926 35.6556 6.72113C35.7676 7.71126 35.8769 8.7165 35.9835 9.73685C36.0167 10.17 35.8795 10.599 35.6011 10.9325C35.3226 11.2659 34.925 11.4774 34.493 11.5219C34.0609 11.5664 33.6285 11.4404 33.288 11.1707C32.9475 10.901 32.7257 10.509 32.6699 10.0781C32.5633 9.07913 32.454 8.08367 32.342 7.09176C32.2398 6.21932 31.8467 5.40678 31.2262 4.78516C30.6056 4.16354 29.7939 3.76909 28.9218 3.66541L28.6846 3.63875C27.7675 3.53209 26.846 3.42721 25.9201 3.32411C25.7025 3.30084 25.4917 3.23493 25.2996 3.13014C25.1074 3.02535 24.9379 2.88374 24.8005 2.71339C24.6631 2.54304 24.5606 2.34728 24.4988 2.13731C24.4371 1.92733 24.4173 1.70724 24.4406 1.48962ZM10.5171 6.87312C11.2635 6.79579 12.0552 6.72913 12.879 6.72913C13.7001 6.72913 14.4945 6.79579 15.2382 6.87312C17.1416 7.07576 18.6771 8.60629 18.8691 10.5181C18.9437 11.2567 19.005 12.046 19.005 12.8592C19.005 13.6725 18.9437 14.4591 18.8691 15.1977C18.7696 16.1281 18.3555 16.9966 17.6952 17.6595C17.0349 18.3224 16.1681 18.7398 15.2382 18.8427C14.4945 18.9227 13.7001 18.9866 12.879 18.9866C12.0579 18.9866 11.2608 18.92 10.5171 18.8427C9.58723 18.7398 8.7204 18.3224 8.06011 17.6595C7.39981 16.9966 6.98567 16.1281 6.88624 15.1977C6.80379 14.4208 6.7593 13.6404 6.75295 12.8592C6.75295 12.046 6.8116 11.2594 6.88624 10.5181C6.98567 9.58768 7.39981 8.71913 8.06011 8.05626C8.7204 7.39339 9.58723 6.97597 10.5171 6.87312ZM10.9596 23.3516C10.9596 22.8212 10.749 22.3125 10.374 21.9375C9.99905 21.5625 9.49051 21.3518 8.96024 21.3518C8.42998 21.3518 7.92144 21.5625 7.54648 21.9375C7.17153 22.3125 6.96089 22.8212 6.96089 23.3516V27.2739C6.96089 28.3804 7.8566 29.2737 8.96024 29.2737H12.8097C13.3399 29.2737 13.8485 29.063 14.2234 28.688C14.5984 28.3129 14.809 27.8043 14.809 27.2739C14.809 26.7435 14.5984 26.2348 14.2234 25.8598C13.8485 25.4848 13.3399 25.2741 12.8097 25.2741H10.9596V23.3516ZM27.173 29.2764C26.6428 29.2764 26.1342 29.0657 25.7593 28.6906C25.3843 28.3156 25.1737 27.8069 25.1737 27.2765V25.3567H23.329C22.7987 25.3567 22.2901 25.146 21.9152 24.771C21.5402 24.396 21.3296 23.8873 21.3296 23.3569C21.3296 22.8265 21.5402 22.3179 21.9152 21.9428C22.2901 21.5678 22.7987 21.3571 23.329 21.3571H27.1757C27.706 21.3571 28.2145 21.5678 28.5895 21.9428C28.9644 22.3179 29.1751 22.8265 29.1751 23.3569V27.2765C29.1751 27.8069 28.9644 28.3156 28.5895 28.6906C28.2145 29.0657 27.7033 29.2764 27.173 29.2764ZM27.2477 19.6159C27.778 19.6159 28.2865 19.4052 28.6614 19.0302C29.0364 18.6552 29.247 18.1465 29.247 17.6161C29.247 17.0857 29.0364 16.5771 28.6614 16.202C28.2865 15.827 27.778 15.6163 27.2477 15.6163H23.3956C22.8653 15.6163 22.3568 15.827 21.9818 16.202C21.6069 16.5771 21.3962 17.0857 21.3962 17.6161C21.3962 18.1465 21.6069 18.6552 21.9818 19.0302C22.3568 19.4052 22.8653 19.6159 23.3956 19.6159H27.2477ZM17.5175 29.2417C16.9872 29.2417 16.4787 29.031 16.1037 28.656C15.7288 28.2809 15.5181 27.7723 15.5181 27.2419V23.3889C15.5181 22.8585 15.7288 22.3499 16.1037 21.9748C16.4787 21.5998 16.9872 21.3891 17.5175 21.3891C18.0478 21.3891 18.5563 21.5998 18.9312 21.9748C19.3062 22.3499 19.5168 22.8585 19.5168 23.3889V27.2392C19.5168 27.7696 19.3062 28.2783 18.9312 28.6533C18.5563 29.0283 18.0478 29.239 17.5175 29.239M25.1764 12.7846C25.1764 13.3149 25.387 13.8236 25.762 14.1986C26.1369 14.5737 26.6455 14.7844 27.1757 14.7844C27.706 14.7844 28.2145 14.5737 28.5895 14.1986C28.9644 13.8236 29.1751 13.3149 29.1751 12.7846V8.86493C29.1751 8.33455 28.9644 7.82589 28.5895 7.45085C28.2145 7.07581 27.706 6.86512 27.1757 6.86512H23.329C23.0664 6.86512 22.8064 6.91684 22.5638 7.01734C22.3213 7.11784 22.1009 7.26515 21.9152 7.45085C21.7295 7.63655 21.5823 7.85701 21.4818 8.09963C21.3813 8.34226 21.3296 8.60231 21.3296 8.86493C21.3296 9.12755 21.3813 9.3876 21.4818 9.63022C21.5823 9.87285 21.7295 10.0933 21.9152 10.279C22.1009 10.4647 22.3213 10.612 22.5638 10.7125C22.8064 10.813 23.0664 10.8647 23.329 10.8647H25.1764V12.7846ZM26.28 35.9904C25.8406 36.0378 25.4004 35.9086 25.0562 35.6313C24.7119 35.3541 24.492 34.9514 24.4446 34.5119C24.3972 34.0724 24.5263 33.632 24.8036 33.2877C25.0808 32.9435 25.4834 32.7234 25.9228 32.676C26.8447 32.5749 27.7662 32.47 28.6872 32.3614L28.9245 32.3347C29.7966 32.2311 30.6083 31.8366 31.2288 31.215C31.8493 30.5934 32.2424 29.7808 32.3447 28.9084C32.4585 27.9165 32.5678 26.921 32.6726 25.922C32.6896 25.7001 32.7509 25.4839 32.8527 25.2861C32.9546 25.0883 33.0951 24.9129 33.2658 24.7703C33.4366 24.6276 33.6341 24.5206 33.8469 24.4556C34.0596 24.3906 34.2832 24.3688 34.5045 24.3916C34.7258 24.4144 34.9403 24.4813 35.1354 24.5883C35.3304 24.6954 35.502 24.8404 35.6401 25.0148C35.7782 25.1893 35.88 25.3896 35.9394 25.604C35.9989 25.8185 36.0148 26.0426 35.9862 26.2633C35.8796 27.2837 35.7703 28.2889 35.6583 29.279C35.4723 30.9009 34.7439 32.4123 33.5913 33.5681C32.4386 34.7239 30.9294 35.4563 29.3084 35.6464L29.0684 35.6731C28.1514 35.7797 27.2219 35.8855 26.28 35.9904ZM9.72533 35.9904C9.9429 36.0137 10.1629 35.9939 10.3729 35.9321C10.5828 35.8703 10.7785 35.7678 10.9488 35.6304C11.1191 35.493 11.2607 35.3234 11.3654 35.1312C11.4702 34.9391 11.5361 34.7282 11.5594 34.5105C11.5827 34.2929 11.5629 34.0728 11.5011 33.8629C11.4394 33.6529 11.3369 33.4571 11.1995 33.2868C11.0621 33.1164 10.8925 32.9748 10.7004 32.87C10.5083 32.7652 10.2975 32.6993 10.0799 32.676C9.15396 32.5747 8.23248 32.4698 7.31544 32.3614L7.07818 32.3347C6.2061 32.2311 5.39436 31.8366 4.77385 31.215C4.15334 30.5934 3.76024 29.7808 3.65795 28.9084C3.54424 27.9134 3.43494 26.9179 3.33006 25.922C3.27429 25.4912 3.05251 25.0991 2.71199 24.8294C2.37146 24.5597 1.93911 24.4337 1.50705 24.4782C1.07499 24.5227 0.677379 24.7342 0.398947 25.0677C0.120514 25.4011 -0.0167303 25.8301 0.0164561 26.2633C0.123088 27.2837 0.232387 28.2889 0.344351 29.279C0.53035 30.9009 1.25875 32.4123 2.41139 33.5681C3.56403 34.7239 5.07328 35.4563 6.69431 35.6464L6.93423 35.6731C7.84949 35.7797 8.77897 35.8855 9.72266 35.9904" fill="#E7E7E7"/>
</svg>
