<svg width="16" height="14" viewBox="0 0 16 14" fill="none" xmlns="http://www.w3.org/2000/svg">
<path fill-rule="evenodd" clip-rule="evenodd" d="M1.08579 12.0208L2.5 13.435L4.06951 11.8655L4.07205 11.8668L5.74123 10.1977L5.73909 10.1959L10.8662 5.06878L10.8679 5.07096L12.7012 3.23765L12.6989 3.23611L14.5208 1.41421L13.1066 0L10.808 2.29861C9.9282 1.99149 8.98352 1.82465 8 1.82465C4.36364 1.82465 1.25818 4.10532 0 7.32465C0.515821 8.64449 1.34213 9.80656 2.38821 10.7184L1.08579 12.0208ZM4.56794 8.53866L9.23241 3.87419C8.84751 3.73426 8.43254 3.65798 8 3.65798C5.99273 3.65798 4.36364 5.30065 4.36364 7.32465C4.36364 7.75007 4.43561 8.15865 4.56794 8.53866Z" fill="#8A8F98"/>
<path d="M8 12.8246C6.96429 12.8246 5.97165 12.6396 5.05249 12.3006L6.63088 10.7222C7.05353 10.8957 7.51576 10.9913 8 10.9913C10.0073 10.9913 11.6364 9.34865 11.6364 7.32465C11.6364 6.84714 11.5457 6.39085 11.3808 5.97235L13.5098 3.84335C14.6042 4.76784 15.4675 5.96218 16 7.32465C14.7418 10.544 11.6364 12.8246 8 12.8246Z" fill="#8A8F98"/>
</svg>
