<svg width="36" height="36" viewBox="0 0 36 36" fill="none" xmlns="http://www.w3.org/2000/svg">
<path d="M25.359 10.7749C25.3661 10.7749 25.3757 10.7749 25.3853 10.7749C25.6351 10.7749 25.8669 10.8526 26.057 10.9865L26.0534 10.9841C26.192 11.1048 26.2853 11.2745 26.308 11.4657V11.4693C26.3319 11.6151 26.345 11.7825 26.345 11.9534C26.345 12.0311 26.3426 12.1076 26.3367 12.1841V12.1733C26.0677 15.0048 24.9012 21.8713 24.3084 25.041C24.0574 26.3833 23.5637 26.8327 23.0857 26.8757C22.047 26.9725 21.2582 26.1896 20.2518 25.5299C18.6765 24.496 17.7861 23.853 16.2574 22.8454C14.4896 21.6825 15.6359 21.0406 16.6422 19.996C16.9064 19.7211 21.4853 15.5558 21.5749 15.1781C21.5797 15.1554 21.5821 15.1303 21.5821 15.104C21.5821 15.0108 21.5474 14.9259 21.4912 14.8614C21.4291 14.8207 21.3514 14.798 21.2701 14.798C21.2163 14.798 21.1649 14.8088 21.1171 14.8267L21.1195 14.8255C20.9618 14.8614 18.4454 16.5243 13.5705 19.8143C13.0386 20.2339 12.3669 20.4992 11.6355 20.5303H11.6283C10.592 20.4048 9.65139 20.1741 8.75857 19.8454L8.84701 19.8741C7.7259 19.5084 6.83546 19.3159 6.91195 18.6968C6.95259 18.3749 7.39641 18.0454 8.24343 17.7084C13.461 15.4351 16.9402 13.9367 18.6813 13.2131C20.602 12.1936 22.8287 11.3546 25.1701 10.8108L25.3578 10.7737L25.359 10.7749ZM17.9582 0C8.03546 0.0239044 0 8.0737 0 18C0 27.9406 8.05817 36 18 36C27.9418 36 36 27.9418 36 18C36 8.0737 27.9645 0.0239044 18.0442 0H18.0418C18.0139 0 17.9861 0 17.9582 0Z" fill="#E7E7E7"/>
</svg>
