<svg width="31" height="36" viewBox="0 0 31 36" fill="none" xmlns="http://www.w3.org/2000/svg">
<path d="M16.2812 0.18867C18.2288 0.158936 20.1616 0.173803 22.0944 0.158936C22.2133 2.43366 23.031 4.75298 24.6962 6.35867C26.3614 8.00896 28.7104 8.7672 31 9.01994V15.0115C28.8591 14.9372 26.7033 14.4912 24.7557 13.5694C23.9082 13.1828 23.1202 12.6922 22.3471 12.1867C22.3323 16.528 22.362 20.8693 22.3174 25.1957C22.1985 27.2772 21.5146 29.3438 20.3103 31.0535C18.3627 33.9081 14.9877 35.7665 11.5236 35.826C9.39758 35.9449 7.27153 35.3651 5.4577 34.2946C2.45447 32.5254 0.343292 29.2843 0.0310755 25.8053C0.00134059 25.0619 -0.0135269 24.3186 0.0162081 23.5901C0.283822 20.7652 1.68136 18.0594 3.85201 16.2158C6.32001 14.0749 9.76926 13.049 12.9955 13.6586C13.0252 15.859 12.936 18.0594 12.936 20.2597C11.4642 19.784 9.73953 19.9178 8.44606 20.8098C7.50941 21.4194 6.79577 22.3561 6.42409 23.4116C6.11187 24.1699 6.20107 25.0025 6.21594 25.8053C6.57276 28.2436 8.92182 30.2953 11.4196 30.0723C13.0847 30.0574 14.6755 29.091 15.5378 27.6786C15.8203 27.188 16.1325 26.6825 16.1474 26.1027C16.2961 23.4414 16.2366 20.795 16.2515 18.1337C16.2663 12.1421 16.2366 6.16539 16.2812 0.18867Z" fill="#E7E7E7"/>
</svg>
