<svg width="34" height="36" viewBox="0 0 34 36" fill="none" xmlns="http://www.w3.org/2000/svg">
<path d="M16.1046 0C13.226 0.0420008 7.04162 0.51601 3.58643 3.70057C1.02006 6.28062 0.114807 10.0502 0.0206968 14.7258C-0.0734134 19.3999 -0.195906 28.1646 8.21725 30.5406H8.22173L8.21575 34.1647C8.21575 34.1647 8.16048 35.6302 9.12698 35.9302C10.2877 36.2932 10.9703 35.1802 12.0847 33.9772C12.6927 33.3172 13.5367 32.3511 14.1716 31.6071C19.9228 32.0961 24.3474 30.9831 24.8523 30.8196C26.0115 30.4416 32.5843 29.5956 33.6539 20.8339C34.7593 11.8037 33.1161 6.08862 30.1584 3.51457C29.2681 2.68955 25.668 0.0645013 17.6477 0.0300006C17.6477 0.0300006 17.0576 -0.00750015 16.0986 0.00450009L16.1046 0ZM16.1912 2.53955C17.0053 2.53355 17.5058 2.56505 17.5058 2.56505C24.2907 2.59505 27.5397 4.64709 28.2941 5.33411C30.7962 7.48665 32.0734 12.6363 31.1413 20.1799V20.1829C30.239 27.5 24.9061 27.9591 23.9232 28.2756C23.5049 28.4106 19.618 29.3811 14.7318 29.0616C14.7318 29.0616 11.0928 33.4717 9.95604 34.6177C9.77679 34.7977 9.56765 34.8682 9.43022 34.8337C9.23603 34.7842 9.18225 34.5517 9.18374 34.2127L9.21362 28.1856C2.10008 26.2055 2.51387 18.7474 2.59603 14.8428C2.6767 10.9367 3.40717 7.73565 5.57768 5.58311C8.50555 2.92356 13.7548 2.55605 16.1987 2.53805L16.1912 2.53955ZM16.7589 6.44263C16.5094 6.44263 16.3062 6.64513 16.3047 6.89564C16.3047 7.14614 16.5034 7.35015 16.7529 7.35315C19.1788 7.36815 21.1537 8.15866 22.77 9.74119C24.3728 11.3102 25.1899 13.4433 25.2094 16.2423C25.2124 16.4928 25.4185 16.6923 25.668 16.6923C25.9159 16.6893 26.1161 16.4853 26.1161 16.2363C26.0952 13.2603 25.1929 10.8422 23.4033 9.09018C21.6257 7.35015 19.3805 6.46063 16.7589 6.44263ZM10.8434 7.48515C10.5595 7.43715 10.2458 7.49265 9.92318 7.66065L9.90824 7.66365C9.2659 8.03416 8.68929 8.50667 8.19633 9.06168C8.19335 9.06768 8.18737 9.06768 8.18438 9.07368C7.78553 9.55819 7.55698 10.0307 7.49723 10.4957C7.48528 10.5647 7.48229 10.6352 7.48677 10.7057C7.48677 10.9097 7.51964 11.1107 7.58387 11.3057L7.60329 11.3207C7.80495 12.0407 8.30986 13.2348 9.40333 15.2268C10.0307 16.3788 10.7522 17.4768 11.5634 18.5059C11.9667 19.0219 12.3999 19.5154 12.863 19.9819L13.0602 20.1799C13.5233 20.6419 14.0162 21.0799 14.5301 21.4849C15.5549 22.2994 16.6483 23.0255 17.7956 23.6555C19.7794 24.755 20.9714 25.2605 21.6855 25.4645L21.7004 25.4855C21.8946 25.5485 22.0963 25.5815 22.3009 25.58C22.3696 25.583 22.4383 25.58 22.5071 25.568C22.9701 25.514 23.4437 25.283 23.9232 24.878C23.9292 24.878 23.9277 24.875 23.9351 24.8705C24.4879 24.3755 24.9554 23.7905 25.3244 23.1485L25.3289 23.1335C25.665 22.4854 25.5529 21.8704 25.06 21.4534C25.054 21.4534 24.0173 20.5834 23.5109 20.2084C22.9731 19.8259 22.4204 19.4704 21.8483 19.1434C21.0864 18.7159 20.3067 18.9844 19.984 19.4044L19.3163 20.2504C18.9727 20.6749 18.3348 20.6194 18.3348 20.6194C13.6741 19.4254 12.4268 14.6868 12.4268 14.6868C12.4268 14.6868 12.3715 14.0478 12.7973 13.7028L13.6383 13.0308C14.0521 12.7083 14.3195 11.9252 13.8922 11.1587C13.5681 10.5842 13.214 10.0247 12.8316 9.48619C12.4582 8.97618 11.5977 7.93666 11.5918 7.93366C11.3871 7.68615 11.1287 7.53615 10.8419 7.48815L10.8434 7.48515ZM17.5506 8.80517C17.3146 8.80818 17.1174 8.99118 17.1024 9.22818C17.0875 9.47869 17.2742 9.69619 17.5237 9.71419C19.2565 9.84169 20.5367 10.4132 21.4748 11.4392C22.4159 12.4712 22.8641 13.7253 22.8282 15.2943C22.8252 15.5463 23.0224 15.7533 23.2764 15.7593C23.5243 15.7638 23.732 15.5643 23.7395 15.3138C23.7768 13.5513 23.2405 12.0242 22.1456 10.8227C21.0401 9.60769 19.491 8.94318 17.5894 8.80367H17.5536L17.5506 8.80517ZM18.2422 11.2502C18.0032 11.2532 17.809 11.4407 17.7941 11.6807C17.7821 11.9312 17.9733 12.1457 18.2243 12.1607C19.0056 12.2027 19.5314 12.4232 19.8869 12.7938C20.2454 13.1613 20.4665 13.7238 20.5083 14.5398C20.5233 14.7903 20.7324 14.9823 20.9834 14.9703C21.2328 14.9583 21.424 14.7453 21.4121 14.4948C21.3673 13.5288 21.0909 12.7278 20.5457 12.1592C19.9974 11.5922 19.2117 11.2982 18.2751 11.2487H18.2482L18.2422 11.2502Z" fill="#E7E7E7"/>
</svg>
