<svg width="36" height="36" viewBox="0 0 36 36" fill="none" xmlns="http://www.w3.org/2000/svg">
<path fill-rule="evenodd" clip-rule="evenodd" d="M5.55261 0.427304C8.12426 0.218348 12.1977 0 18 0C23.8023 0 27.8757 0.218348 30.4474 0.427304C33.2116 0.651913 35.3489 2.78843 35.5735 5.55339C35.7824 8.12348 36 12.197 36 18C36 23.803 35.7824 27.8757 35.5735 30.4474C35.3489 33.2116 33.2116 35.3489 30.4474 35.5735C27.8757 35.7824 23.8023 36 18 36C12.1977 36 8.12426 35.7824 5.55261 35.5735C2.78843 35.3489 0.65113 33.2116 0.426522 30.4474C0.21913 27.8757 0 23.8023 0 18C0 12.1977 0.218348 8.12426 0.427304 5.55261C0.651913 2.78843 2.78843 0.65113 5.55339 0.426522M3.26739 10.5652C3.17248 13.0423 3.12682 15.5211 3.13043 18C3.13043 23.724 3.34565 27.7122 3.54678 30.193C3.64774 31.4296 4.57122 32.353 5.80617 32.4532C8.28783 32.6543 12.276 32.8696 18 32.8696C23.724 32.8696 27.7122 32.6543 30.193 32.4532C31.4296 32.3523 32.353 31.4288 32.4532 30.1938C32.6543 27.7122 32.8696 23.724 32.8696 18C32.8696 15.0809 32.814 12.6125 32.7318 10.5652H3.26739ZM4.8913 5.86957C4.8913 5.11356 5.50487 4.5 6.26087 4.5H7.82609C8.18932 4.5 8.53767 4.64429 8.79452 4.90114C9.05136 5.15798 9.19565 5.50633 9.19565 5.86957C9.19565 6.2328 9.05136 6.58115 8.79452 6.83799C8.53767 7.09484 8.18932 7.23913 7.82609 7.23913H6.26087C5.89764 7.23913 5.54928 7.09484 5.29244 6.83799C5.0356 6.58115 4.8913 6.2328 4.8913 5.86957ZM12.5217 4.5C12.1585 4.5 11.8102 4.64429 11.5533 4.90114C11.2965 5.15798 11.1522 5.50633 11.1522 5.86957C11.1522 6.2328 11.2965 6.58115 11.5533 6.83799C11.8102 7.09484 12.1585 7.23913 12.5217 7.23913H14.087C14.4502 7.23913 14.7985 7.09484 15.0554 6.83799C15.3122 6.58115 15.4565 6.2328 15.4565 5.86957C15.4565 5.50633 15.3122 5.15798 15.0554 4.90114C14.7985 4.64429 14.4502 4.5 14.087 4.5H12.5217Z" fill="#E7E7E7"/>
</svg>
