<svg width="36" height="26" viewBox="0 0 36 26" fill="none" xmlns="http://www.w3.org/2000/svg">
<path fill-rule="evenodd" clip-rule="evenodd" d="M17.9814 0C17.9814 0 29.2259 -0.000185311 32.0195 0.761719C33.5723 1.18197 34.7849 2.39541 35.2051 3.94824C36.394 8.73427 36.1196 16.2929 35.2285 21.2637C34.8083 22.8166 33.5949 24.03 32.042 24.4502C29.2511 25.2111 18.0322 25.2119 18.0049 25.2119C18.0049 25.2119 6.76044 25.2121 3.96679 24.4502C2.41411 24.0299 1.20141 22.8164 0.781239 21.2637C-0.414626 16.4983 -0.0872025 8.93451 0.757802 3.9707C1.1781 2.41798 2.39155 1.20533 3.94433 0.785156C6.72981 0.0255465 17.9148 0.000143527 17.9814 0ZM14.4033 18.0088L23.7305 12.6064L14.4033 7.20312V18.0088Z" fill="#E7E7E7"/>
</svg>
